<svg xmlns="http://www.w3.org/2000/svg" xmlns:xlink="http://www.w3.org/1999/xlink" xmlns:serif="http://www.serif.com/" width="100%" height="100%" viewBox="0 0 1080 1080" xml:space="preserve" style="fill-rule:evenodd;clip-rule:evenodd;stroke-miterlimit:13;"> <g id="Shard1" transform="matrix(1,0,0,1,-262.751,0)"> <path d="M727.469,828.768C727.469,828.768 736.469,860.768 738.469,863.168C740.469,865.568 750.206,877.253 751.534,878.846C752.862,880.44 752.744,895.368 750.206,899.568C747.669,903.768 748.069,927.968 747.669,931.768L741.669,913.168C741.669,913.168 742.069,905.368 740.269,899.568C738.469,893.768 737.469,884.768 732.469,880.568C727.469,876.368 729.869,873.168 727.469,868.168C725.069,863.168 727.469,830.968 727.469,828.768Z" style="fill:rgb(242,242,242);"></path> <path d="M752.832,889.328C752.832,889.328 751.141,885.01 749.049,881.374C747.853,879.296 746.518,877.445 745.297,876.674C744.021,875.869 742.295,874.363 740.57,872.699C737.892,870.117 735.219,867.162 734.217,865.821C733.726,865.164 733.071,863.746 732.389,862.083C730.774,858.14 729.031,852.83 729.031,852.83C729.031,852.83 730.603,858.201 732.09,862.2C732.733,863.928 733.364,865.4 733.845,866.089C734.812,867.476 737.412,870.548 740.03,873.242C741.749,875.011 743.48,876.615 744.766,877.486C745.863,878.23 746.999,879.993 748.034,881.935C749.964,885.558 751.48,889.833 751.48,889.833L752.832,889.328Z" style="fill:rgb(128,128,128);"></path> <path d="M749.391,907.631C749.391,907.631 746.226,896.483 743.194,888.321C741.839,884.672 740.504,881.617 739.492,880.39C737.979,878.557 735.933,875.61 734.051,872.703C731.882,869.352 729.933,866.055 729.269,864.568C729.888,866.076 731.74,869.435 733.809,872.854C735.613,875.834 737.581,878.857 739.046,880.746C739.998,881.973 741.195,884.999 742.41,888.599C745.182,896.814 747.997,908.004 747.997,908.004L749.391,907.631Z" style="fill:rgb(128,128,128);"></path> <path d="M727.469,828.768C727.469,828.768 736.469,860.768 738.469,863.168C740.469,865.568 750.206,877.253 751.534,878.846C752.862,880.44 752.744,895.368 750.206,899.568C747.669,903.768 748.069,927.968 747.669,931.768L741.669,913.168C741.669,913.168 742.069,905.368 740.269,899.568C738.469,893.768 737.469,884.768 732.469,880.568C727.469,876.368 729.869,873.168 727.469,868.168C725.069,863.168 727.469,830.968 727.469,828.768Z" style="fill:none;stroke:rgb(128,128,128);stroke-width:1.44px;"></path> </g> </svg>