<svg xmlns="http://www.w3.org/2000/svg" xmlns:xlink="http://www.w3.org/1999/xlink" xmlns:serif="http://www.serif.com/" width="100%" height="100%" viewBox="0 0 1080 1080" xml:space="preserve" style="fill-rule:evenodd;clip-rule:evenodd;stroke-linecap:round;stroke-linejoin:round;stroke-miterlimit:1.5;"> <g> <g> <g transform="matrix(0.715946,0,0,0.518332,-129.789,370.226)"> <path d="M1038.87,924.737L1038.87,268.965" style="fill:none;stroke:rgb(77,77,77);stroke-width:2.08px;"></path> </g> <g transform="matrix(0.563829,0,0,0.563829,-101.233,337.898)"> <path d="M1038.87,619.468L1038.87,222.904" style="fill:none;stroke:rgb(77,77,77);stroke-width:2.08px;"></path> </g> <g transform="matrix(1.84475,0,0,1.84475,-1193.09,-638.538)"> <path d="M909.393,740.895L909.393,770.033" style="fill:none;stroke:rgb(77,77,77);stroke-width:1.13px;"></path> </g> <g transform="matrix(0.757095,0,0,0.697688,-145.529,305.252)"> <path d="M1038.87,987.607L1038.87,200.204" style="fill:none;stroke:rgb(77,77,77);stroke-width:2.08px;"></path> </g> <g transform="matrix(1,0,0,1,-424.884,15.6468)"> <path d="M1033.97,517.99L1016.12,484.733L1016.12,465.549L1007.72,469.081L979.215,415.99L979.215,406.306L984.738,404.233L990.165,406.306L987.037,399.338L987.037,391.836L992.849,387.223L1029.41,455.328L1033.43,468.804L1039.45,474.04L1047.61,489.223L1048.12,511.597L1033.97,517.99Z" style="fill:rgb(77,77,77);"></path> </g> </g> <g transform="matrix(1,0,0,1,-424.884,15.6468)"> <path d="M915.28,458.538L913.754,456.708L910.966,456.708L897.628,451.05L897.628,445.239L899.805,444.263L897.628,440.764L897.628,435.521L946.523,428.71L960,428.71L968.745,425.614L1025.56,417.698L1028.99,421.739L1033.98,416.525L1059.32,412.996L1063.4,419.636L1070.4,417.698L1079.92,421.739L1079.92,427.219L1075.63,431.5L1079.92,433.952L1079.92,437.265L979.215,451.294L976.068,444.263L960,453.971L918.231,459.79L915.28,458.538Z" style="fill:rgb(77,77,77);"></path> </g> </g> </svg>