<svg xmlns="http://www.w3.org/2000/svg" xmlns:xlink="http://www.w3.org/1999/xlink" xmlns:serif="http://www.serif.com/" width="100%" height="100%" viewBox="0 0 1080 1080" xml:space="preserve" style="fill-rule:evenodd;clip-rule:evenodd;stroke-miterlimit:13;"> <g id="Cable4"> <g transform="matrix(1,0,0,1,-262.751,0)"> <path d="M547.258,695.744L543.758,697.994C543.758,697.994 534.508,683.494 535.258,675.744C536.008,667.994 540.008,654.744 534.508,650.744L536.008,647.744C536.008,647.744 541.508,651.744 541.508,658.244C541.508,664.744 539.365,671.494 539.365,675.744C539.365,684.779 547.258,695.744 547.258,695.744Z" style="fill:rgb(242,242,242);"></path> </g> <g transform="matrix(1,0,0,1,-262.751,0)"> <path d="M535.59,648.831C535.59,648.831 531.686,647.167 529.958,642.111" style="fill:none;stroke:rgb(128,128,128);stroke-width:1.44px;"></path> </g> <g transform="matrix(1,0,0,1,-262.751,0)"> <path d="M534.566,649.983L531.302,648.447" style="fill:none;stroke:rgb(128,128,128);stroke-width:1.44px;"></path> </g> <g transform="matrix(1,0,0,1,-262.751,0)"> <path d="M544.742,697.663L545.254,699.583" style="fill:none;stroke:rgb(128,128,128);stroke-width:1.44px;"></path> </g> <g transform="matrix(1,0,0,1,-262.751,0)"> <path d="M546.79,696.383L549.414,699.839" style="fill:none;stroke:rgb(128,128,128);stroke-width:1.44px;"></path> </g> <g transform="matrix(1,0,0,1,-262.751,0)"> <path d="M543.505,689.5C543.505,689.5 541.926,687.745 540.439,684.111C539.981,682.993 539.531,681.702 539.125,680.223C538.969,679.654 538.818,679.059 538.67,678.436C538.578,678.047 538.488,677.648 538.394,677.239C538.177,676.29 537.969,675.286 537.785,674.218C537.54,672.788 537.33,671.257 537.196,669.598C537.076,668.122 536.995,666.567 537.005,664.9C536.746,666.559 536.572,668.119 536.492,669.608C536.434,670.715 536.426,671.77 536.461,672.783C536.499,673.901 536.585,674.96 536.722,675.962C536.822,676.694 536.95,677.394 537.102,678.061C537.225,678.599 537.365,679.114 537.517,679.609C537.918,680.909 538.381,682.068 538.869,683.092C539.699,684.831 540.586,686.173 541.355,687.179C542.582,688.786 543.505,689.5 543.505,689.5Z" style="fill:rgb(128,128,128);"></path> </g> <g transform="matrix(1,0,0,1,-262.751,0)"> <path d="M547.258,695.744L543.758,697.994C543.758,697.994 534.508,683.494 535.258,675.744C536.008,667.994 540.008,654.744 534.508,650.744L536.008,647.744C536.008,647.744 541.508,651.744 541.508,658.244C541.508,664.744 539.365,671.494 539.365,675.744C539.365,684.779 547.258,695.744 547.258,695.744Z" style="fill:none;stroke:rgb(128,128,128);stroke-width:1.44px;"></path> </g> <g transform="matrix(1,0,0,1,-262.751,0)"> <path d="M495.833,362.988C495.833,362.988 500.833,347.988 508.833,342.488C508.833,342.488 508.166,338.488 504.166,340.154C504.166,340.154 492.166,353.321 492.166,360.654C492.166,360.654 493.166,362.654 495.833,362.988Z" style="fill:rgb(242,242,242);"></path> </g> <g transform="matrix(1,0,0,1,-262.751,0)"> <path d="M495.833,362.988C495.833,362.988 500.833,347.988 508.833,342.488C508.833,342.488 508.166,338.488 504.166,340.154C504.166,340.154 492.166,353.321 492.166,360.654C492.166,360.654 493.166,362.654 495.833,362.988Z" style="fill:none;stroke:rgb(128,128,128);stroke-width:1.44px;"></path> </g> </g> </svg>