<svg xmlns="http://www.w3.org/2000/svg" xmlns:xlink="http://www.w3.org/1999/xlink" xmlns:serif="http://www.serif.com/" width="100%" height="100%" viewBox="0 0 1080 1080" xml:space="preserve" style="fill-rule:evenodd;clip-rule:evenodd;stroke-miterlimit:13;"> <g id="Cable-7" serif:id="Cable 7"> <g transform="matrix(1,0,0,1,-262.751,0)"> <path d="M430.518,298.975L426.422,300.511L427.702,301.919L431.67,300.511C431.67,300.511 431.79,300.471 431.899,300.447C432.172,301.044 432.356,301.786 432.288,302.665C432.288,302.665 438.092,301.258 447.161,300.765C448.913,300.67 449.586,298.675 451.563,298.665C453.419,298.656 456.568,300.624 458.592,300.718C468.38,301.172 479.949,302.999 491.588,307.765C491.588,307.765 494.188,304.865 493.488,302.665C493.488,302.665 459.688,288.965 430.488,298.665C430.488,298.665 430.638,298.77 430.851,298.975C430.695,298.979 430.518,298.975 430.518,298.975Z" style="fill:rgb(242,242,242);"></path> </g> <g transform="matrix(1,0,0,1,-262.751,0)"> <path d="M491.588,307.765C491.588,307.765 494.188,304.865 493.488,302.665C493.488,302.665 459.688,288.965 430.488,298.665C430.488,298.665 432.488,300.065 432.288,302.665C432.288,302.665 438.092,301.258 447.161,300.765C448.913,300.67 449.586,298.675 451.563,298.665C453.419,298.656 456.568,300.624 458.592,300.718C468.38,301.172 479.949,302.999 491.588,307.765Z" style="fill:none;stroke:rgb(128,128,128);stroke-width:1.44px;"></path> </g> <g transform="matrix(1,0,0,1,-262.751,0)"> <path d="M430.518,298.975L426.422,300.511L427.702,301.919L431.67,300.511" style="fill:none;stroke:rgb(128,128,128);stroke-width:1.44px;"></path> </g> <g transform="matrix(1,0,0,1,-262.751,0)"> <path d="M437.621,297.323C437.621,297.323 438.194,297.927 438.653,298.589C438.91,298.959 439.115,299.293 439.158,299.551C439.254,299.289 439.239,298.871 439.196,298.392C439.118,297.53 438.904,296.66 438.904,296.66L437.621,297.323Z" style="fill:rgb(128,128,128);"></path> </g> <g transform="matrix(1,0,0,1,-262.751,0)"> <path d="M450.549,298.619L449.398,296.863L449.144,298.947L450.549,298.619Z" style="fill:rgb(128,128,128);"></path> </g> <g transform="matrix(1,0,0,1,-262.751,0)"> <path d="M473.066,302.915C473.066,302.915 473.418,302.014 473.434,300.859C473.443,300.221 473.38,299.548 473.078,298.911C473.112,299.43 473.013,299.912 472.858,300.375C472.501,301.447 471.81,302.203 471.81,302.203L473.066,302.915Z" style="fill:rgb(128,128,128);"></path> </g> <g transform="matrix(1,0,0,1,-262.751,0)"> <path d="M487.636,301.087C487.636,301.087 488.161,301.779 488.29,302.649C488.35,303.05 488.348,303.445 488.182,303.839C488.637,303.442 488.828,302.903 488.949,302.356C489.157,301.419 488.985,300.575 488.985,300.575L487.636,301.087Z" style="fill:rgb(128,128,128);"></path> </g> <g transform="matrix(1,0,0,1,-262.751,0)"> <path d="M432.118,301.919C432.118,301.919 430.07,303.327 430.518,305.055" style="fill:none;stroke:rgb(128,128,128);stroke-width:1.44px;"></path> </g> <g transform="matrix(1,0,0,1,-262.751,0)"> <path d="M431.862,301.087C431.862,301.087 428.278,302.879 427.382,305.631" style="fill:none;stroke:rgb(128,128,128);stroke-width:1.44px;"></path> </g> </g> </svg>