<?xml version="1.0" encoding="UTF-8" standalone="no"?> <svg xmlns="http://www.w3.org/2000/svg" xmlns:xlink="http://www.w3.org/1999/xlink" xmlns:serif="http://www.serif.com/" width="100%" height="100%" viewBox="0 0 1080 1080" version="1.1" xml:space="preserve" style="fill-rule:evenodd;clip-rule:evenodd;stroke-miterlimit:13;"> <g id="Hand" transform="matrix(1,0,0,1,-262.751,0)"> <path d="M574.259,552.833C574.259,552.833 570.919,552.833 569.21,554.154L568.356,551.824C568.356,551.824 571.346,550.451 574.035,550.997C574.049,550.983 574.048,550.961 574.035,550.941C574.017,549.048 574.725,547.349 574.725,547.349C580.939,547.97 586.221,552.863 586.221,552.863C586.221,552.863 586.508,553.406 586.635,553.284C581.909,543.1 580.162,532.824 580.162,532.824C580.235,532.735 580.301,532.725 580.395,532.639C579.385,530.93 574.647,528.677 574.647,528.677C574.803,527.202 575.346,526.813 575.346,526.813C578.22,527.512 581.638,531.008 581.638,531.008L582.045,531.517C582.973,531.116 583.813,530.96 583.813,530.96C583.813,530.96 583.746,530.715 583.813,530.386C583.813,526.503 585.521,522.852 585.521,522.852C586.687,521.998 588.24,523.706 588.24,523.706C587.541,525.57 586.997,531.241 586.997,531.241L586.997,531.879L588.395,532.824C591.968,550.455 606.648,566.378 606.648,566.378C606.648,566.378 606.797,566.587 606.964,566.69C609.724,565.678 612.061,560.967 618.806,562.554C627.306,564.554 670.556,586.554 677.556,588.554C677.556,588.554 677.556,589.16 677.353,590.106C677.543,590.328 677.848,590.306 677.848,590.306L681.328,592.232L681.39,592.356L683.627,591.61L685.491,592.356L686.03,592.021C686.03,592.021 704.206,600.917 708.11,602.261C712.014,603.605 721.934,601.237 725.454,600.021C728.974,598.805 735.054,598.933 736.974,600.021C738.894,601.109 742.03,603.029 744.718,603.413C747.406,603.797 752.782,606.357 754.83,607.381C755.413,607.672 755.861,608.015 756.215,608.381C756.305,608.513 756.411,608.381 756.411,608.381C756.411,608.381 760.571,609.789 761.019,611.517C761.467,613.245 759.995,613.245 759.995,613.245C759.995,613.245 759.813,613.163 759.728,613.245C760.021,614.117 759.908,615.168 759.822,616.021C759.694,617.301 757.674,617.509 757.674,617.509C757.674,617.509 755.017,616.06 757.485,617.509C758.577,618.15 759.449,618.77 759.822,619.221C761.038,620.693 759.822,623.445 759.31,624.533C758.798,625.621 756.494,625.557 756.494,625.557L756.083,625.557C756.322,626.272 756.418,627.076 756.622,627.861C757.006,629.333 755.47,630.933 754.958,631.765C754.446,632.597 752.064,633.493 750.912,633.813C750.981,633.872 751.05,633.932 751.119,633.992C753.551,636.117 751.119,638.117 750.369,639.867C749.619,641.617 742.244,643.992 739.744,644.242C737.244,644.492 711.299,634.978 705.869,631.867C700.439,628.755 696.681,630.679 693.848,629.846C691.015,629.012 690.015,625.512 685.681,624.179C681.348,622.846 662.015,617.679 660.848,615.512C660.632,615.111 660.848,614.282 660.848,614.282L648.706,609.63C648.706,609.63 648.492,609.468 648.22,609.368C646.499,610.42 644.739,610.505 643.056,609.804C640.056,608.554 639.056,607.554 636.806,609.804C634.556,612.054 612.556,599.554 600.306,592.054C588.056,584.554 573.306,567.304 578.306,562.554C578.306,562.554 585.925,564.416 590.574,564.658C590.807,564.687 590.58,564.365 590.337,564.359C583.191,555.689 574.725,553.64 574.725,553.64C574.574,553.391 574.259,552.833 574.259,552.833Z" style="fill:rgb(242,242,242);"></path> <path d="M679.709,611.448C679.709,611.448 680.82,610.929 682.664,610.321C683.257,610.126 683.917,609.932 684.639,609.713C685.057,609.587 685.494,609.457 685.943,609.309C686.567,609.102 687.206,608.862 687.894,608.656C688.361,608.515 688.829,608.375 689.325,608.248C690.042,608.064 690.763,607.897 691.543,607.781C690.75,607.663 690,607.593 689.247,607.578C688.714,607.567 688.204,607.586 687.698,607.628C687.164,607.671 686.652,607.739 686.157,607.835C685.809,607.903 685.472,607.983 685.149,608.082C684.809,608.186 684.486,608.31 684.178,608.442C683.672,608.659 683.21,608.891 682.788,609.134C682.148,609.501 681.62,609.868 681.173,610.202C680.203,610.927 679.709,611.448 679.709,611.448Z" style="fill:rgb(128,128,128);"></path> <path d="M590.155,584.659C590.155,584.659 593.679,585.145 597.789,585.415C598.862,585.486 599.975,585.545 601.075,585.562C603.882,585.606 606.594,585.442 608.355,585.01C606.965,585.209 605.025,585.155 602.919,585.007C602.092,584.949 601.242,584.878 600.389,584.801C599.539,584.724 598.689,584.644 597.862,584.559C593.794,584.142 590.306,583.612 590.306,583.612C590.017,583.57 589.748,583.771 589.707,584.06C589.665,584.349 589.866,584.617 590.155,584.659Z" style="fill:rgb(128,128,128);"></path> <path d="M586.371,580.322C586.371,580.322 592.446,581.128 599.554,581.375C601.404,581.44 603.324,581.469 605.224,581.422C609.948,581.305 614.542,580.774 617.643,579.598C614.501,580.594 609.917,580.805 605.221,580.724C603.334,580.692 601.429,580.621 599.594,580.517C592.539,580.118 586.514,579.274 586.514,579.274C586.225,579.235 585.958,579.437 585.919,579.726C585.879,580.015 586.082,580.282 586.371,580.322Z" style="fill:rgb(128,128,128);"></path> <path d="M574.181,549.727C574.181,549.727 569.21,548.872 567.89,548.95" style="fill:none;stroke:rgb(128,128,128);stroke-width:1.44px;"></path> <path d="M574.414,548.173C574.414,548.173 569.987,547.707 568.589,544.678" style="fill:none;stroke:rgb(128,128,128);stroke-width:1.44px;"></path> <path d="M574.259,552.833C574.259,552.833 570.919,552.833 569.21,554.154L568.356,551.824C568.356,551.824 571.515,550.374 574.259,551.047" style="fill:none;stroke:rgb(128,128,128);stroke-width:1.44px;"></path> <path d="M582.492,530.852C582.492,530.852 579.463,525.57 576.356,523.085" style="fill:none;stroke:rgb(128,128,128);stroke-width:1.44px;"></path> <path d="M583.424,530.153C583.424,530.153 582.492,528.444 581.793,525.648" style="fill:none;stroke:rgb(128,128,128);stroke-width:1.44px;"></path> <path d="M581.638,531.008C581.638,531.008 578.22,527.512 575.346,526.813C575.346,526.813 574.803,527.202 574.647,528.677C574.647,528.677 579.385,530.93 580.395,532.639" style="fill:none;stroke:rgb(128,128,128);stroke-width:1.44px;stroke-linecap:round;"></path> <g transform="matrix(1,0,0,1,0.854394,0.621378)"> <path d="M586.143,530.619C586.143,530.619 586.687,524.949 587.386,523.085C587.386,523.085 585.832,521.376 584.667,522.231C584.667,522.231 582.958,525.881 582.958,529.765" style="fill:none;stroke:rgb(128,128,128);stroke-width:1.44px;stroke-linecap:round;"></path> </g> <path d="M586.221,552.863C586.221,552.863 580.939,547.97 574.725,547.349C574.725,547.349 573.172,551.077 574.725,553.64C574.725,553.64 583.191,555.689 590.337,564.359" style="fill:none;stroke:rgb(128,128,128);stroke-width:1.44px;stroke-linecap:round;"></path> <path d="M606.648,566.378C606.648,566.378 591.968,550.455 588.395,532.824C588.395,532.824 583.58,528.63 580.162,532.824C580.162,532.824 583.502,552.475 593.444,564.359" style="fill:none;stroke:rgb(128,128,128);stroke-width:1.44px;stroke-linecap:round;"></path> <path d="M665.607,602.795L662.438,601.118" style="fill:none;stroke:rgb(128,128,128);stroke-width:1.44px;stroke-linecap:round;"></path> <path d="M671.697,598.197L672.505,598.818" style="fill:none;stroke:rgb(128,128,128);stroke-width:1.44px;stroke-linecap:round;"></path> <path d="M677.848,590.306L681.328,592.232" style="fill:none;stroke:rgb(128,128,128);stroke-width:1.44px;stroke-linecap:round;"></path> <path d="M685.491,592.356L683.627,591.61L681.39,592.356L678.408,592.356L678.408,594.096L680.769,595.463" style="fill:none;stroke:rgb(128,128,128);stroke-width:1.44px;stroke-linecap:round;"></path> <path d="M657.281,602.298L665.297,606.399" style="fill:none;stroke:rgb(128,128,128);stroke-width:1.44px;stroke-linecap:round;"></path> <path d="M652.434,605.591L662.376,610.19" style="fill:none;stroke:rgb(128,128,128);stroke-width:1.44px;stroke-linecap:round;"></path> <path d="M648.706,609.63L660.761,614.229" style="fill:none;stroke:rgb(128,128,128);stroke-width:1.44px;stroke-linecap:round;"></path> <path d="M744.322,630.413C744.322,630.413 746.689,630.925 748.968,631.195C750.165,631.337 751.319,631.415 752.094,631.315C751.326,631.271 750.223,630.986 749.089,630.631C746.942,629.957 744.754,629.035 744.754,629.035C744.374,628.916 743.968,629.128 743.849,629.508C743.73,629.888 743.942,630.294 744.322,630.413Z" style="fill:rgb(128,128,128);"></path> <g transform="matrix(1.10862,-0.0295691,0.0321318,1.2047,-101.501,-106.873)"> <path d="M743.786,630.696L743.786,630.696L743.786,630.696L743.786,630.696L743.786,630.696L743.786,630.696L743.787,630.696C743.887,630.698 743.987,630.661 744.058,630.587L744.044,630.593C744.072,630.574 744.102,630.553 744.132,630.527C744.219,630.454 744.388,630.329 744.581,630.136C744.637,630.08 744.693,630.016 744.746,629.946C745.115,629.461 745.51,628.785 745.946,628.122C745.288,628.605 744.61,629.052 744.134,629.451C744.065,629.508 744.004,629.567 743.951,629.626C743.768,629.827 743.655,629.997 743.587,630.086C743.561,630.119 743.549,630.161 743.537,630.153C743.185,629.936 743.777,630.685 743.786,630.696ZM743.786,630.696C743.706,630.694 743.628,630.668 743.564,630.616C743.418,630.498 743.404,630.295 743.786,630.696Z" style="fill:rgb(128,128,128);"></path> </g> <path d="M739.35,636.11C739.205,637.169 735.015,638.178 733.782,637.542C732.549,636.905 732.112,636.11 732.549,635.474C732.987,634.837 737.759,631.775 738.514,632.531C739.27,633.286 739.469,635.235 739.35,636.11Z" style="fill:none;stroke:rgb(128,128,128);stroke-width:0.83px;stroke-linecap:round;"></path> <path d="M740.8,630.992C740.779,630.962 740.752,630.932 740.717,630.903C740.632,630.832 740.517,630.725 740.325,630.584C740.205,630.497 740.077,630.406 739.917,630.313C739.779,630.231 739.63,630.151 739.465,630.076C739.246,629.976 739.004,629.891 738.76,629.796C738.209,629.581 737.633,629.361 737.153,629.118C736.778,628.928 736.455,628.755 736.278,628.559C736.138,628.375 735.875,628.341 735.692,628.481C735.509,628.621 735.474,628.883 735.614,629.066C735.851,629.434 736.359,629.848 736.979,630.246C737.434,630.537 737.947,630.818 738.445,631.056C738.616,631.138 738.783,631.218 738.95,631.278C739.134,631.345 739.312,631.397 739.481,631.433C739.692,631.478 739.872,631.501 740.037,631.512C740.479,631.543 740.71,631.53 740.71,631.53C740.766,631.565 740.927,631.486 740.978,631.339C741.028,631.191 740.949,631.03 740.802,630.98L740.8,630.992Z" style="fill:rgb(128,128,128);"></path> <path d="M733.898,627.084C733.798,625.69 741.117,622.334 741.539,624.901C741.629,625.443 741.526,625.821 741.52,626.258C741.497,627.894 741.539,628.71 739.53,629.004C737.752,629.264 734.035,629.004 733.898,627.084Z" style="fill:none;stroke:rgb(128,128,128);stroke-width:0.83px;stroke-linecap:round;"></path> <path d="M741.258,616.46C742.09,616.267 743.856,615.741 743.536,617.597C743.216,619.453 743.69,620.428 742.09,620.876C740.49,621.324 737.004,622.035 736.586,620.236C736.234,618.723 739.427,616.886 741.258,616.46Z" style="fill:none;stroke:rgb(128,128,128);stroke-width:0.83px;stroke-linecap:round;"></path> <path d="M742.098,623.67L742.098,623.67L742.098,623.67C742.374,623.67 742.604,623.453 742.617,623.175C742.63,622.888 742.408,622.646 742.122,622.633L742.122,622.636C742.096,622.626 742.068,622.618 742.037,622.611C741.882,622.575 741.573,622.476 741.157,622.325C740.964,622.254 740.755,622.164 740.523,622.07C740.358,622.003 740.183,621.932 740.001,621.857C739.832,621.787 739.656,621.723 739.476,621.644C739.119,621.487 738.747,621.321 738.381,621.077C738.174,620.899 737.862,620.922 737.683,621.129C737.505,621.336 737.528,621.649 737.735,621.827C738.147,622.28 738.58,622.644 739.024,622.932C739.238,623.07 739.455,623.186 739.67,623.277C739.995,623.414 740.313,623.5 740.601,623.557C741.479,623.731 742.075,623.67 742.075,623.67L742.098,623.67Z" style="fill:rgb(128,128,128);"></path> <path d="M740.155,613.053C740.775,615.059 744.611,614.544 745.787,614.141C746.768,613.804 746.573,613.035 746.518,612.073C746.464,611.14 746.825,609.752 745.083,610.301C743.777,610.712 739.638,611.383 740.155,613.053Z" style="fill:none;stroke:rgb(128,128,128);stroke-width:0.83px;stroke-linecap:round;"></path> <path d="M756.411,608.381C756.411,608.381 760.571,609.789 761.019,611.517C761.467,613.245 759.995,613.245 759.995,613.245" style="fill:none;stroke:rgb(128,128,128);stroke-width:1.44px;stroke-linecap:round;"></path> <path d="M719.803,612.477C719.803,612.477 721.104,612.752 722.881,613.824C723.439,614.161 724.034,614.574 724.668,615.081C724.913,615.277 725.161,615.485 725.419,615.703C725.58,615.84 725.744,615.982 725.913,616.124C726.31,616.458 726.72,616.813 727.138,617.209C727.706,617.747 728.285,618.331 728.868,619.019C729.39,619.636 729.913,620.29 730.427,621.053C730.13,620.166 729.813,619.374 729.448,618.636C729.174,618.082 728.881,617.58 728.571,617.109C728.227,616.586 727.869,616.118 727.493,615.694C727.219,615.386 726.937,615.104 726.646,614.854C726.331,614.583 726.007,614.348 725.686,614.14C725.146,613.79 724.618,613.51 724.107,613.292C723.32,612.958 722.606,612.762 721.981,612.64C720.638,612.379 719.803,612.477 719.803,612.477Z" style="fill:rgb(128,128,128);"></path> <path d="M713.531,610.429C713.531,610.429 714.386,611.077 716.011,611.826C717.064,612.312 718.422,612.841 720.076,613.245C720.948,613.458 721.899,613.628 722.922,613.737C723.539,613.802 724.181,613.845 724.848,613.848C725.47,613.851 726.113,613.818 726.773,613.753C727.691,613.664 728.639,613.511 729.619,613.295C730.519,613.096 731.437,612.845 732.381,612.526C733.662,612.094 734.964,611.546 736.315,610.877C734.888,611.312 733.525,611.618 732.209,611.852C731.256,612.022 730.34,612.143 729.449,612.232C728.491,612.327 727.573,612.372 726.69,612.394C726.059,612.41 725.448,612.409 724.856,612.405C724.223,612.4 723.612,612.392 723.024,612.367C722.042,612.325 721.127,612.249 720.276,612.146C718.639,611.947 717.263,611.662 716.182,611.361C714.48,610.888 713.531,610.429 713.531,610.429Z" style="fill:rgb(128,128,128);"></path> <path d="M758.42,610.77C758.054,610.038 757.735,609.006 756.914,608.072C756.483,607.582 755.921,607.118 755.154,606.734C753.918,606.116 751.482,604.943 749.142,604.016C747.522,603.375 745.945,602.854 744.821,602.693C743.837,602.552 742.791,602.188 741.772,601.742C740.094,601.006 738.491,600.042 737.334,599.386C736.221,598.755 733.801,598.388 731.217,598.428C729.104,598.46 726.883,598.751 725.215,599.327C723.173,600.032 718.948,601.127 715.032,601.642C712.384,601.989 709.881,602.09 708.351,601.563C707.164,601.153 704.643,600.036 701.72,598.688C695.07,595.619 686.358,591.353 686.358,591.353L685.69,591.026L685.362,591.693C685.362,591.693 684.766,592.902 683.679,593.892C683.071,594.445 682.305,594.936 681.388,595.058C679.831,595.265 678.201,595.705 676.566,596.344C675.078,596.925 673.585,597.67 672.138,598.551C670.814,599.356 670.196,599.952 669.689,600.418C669.415,600.67 669.184,600.88 668.845,601.056C668.495,601.238 668.038,601.385 667.33,601.529C666.519,601.694 665.984,601.871 665.633,602.062C665.195,602.301 664.966,602.584 664.836,602.895C664.717,603.183 664.689,603.514 664.728,603.914C664.764,604.295 664.867,604.773 664.867,605.397C664.867,605.538 664.806,605.707 664.724,605.904C664.538,606.351 664.224,606.884 663.85,607.467C662.747,609.188 661.154,611.308 660.411,613.01C659.909,614.159 659.815,615.17 660.191,615.866C660.378,616.215 660.9,616.669 661.741,617.122C663.049,617.826 665.213,618.665 667.735,619.528C674.083,621.7 682.736,624.053 685.462,624.892C686.457,625.198 687.262,625.627 687.95,626.112C689.194,626.99 690.072,628.042 690.981,628.896C691.78,629.646 692.605,630.253 693.639,630.557C694.596,630.838 695.649,630.841 696.825,630.797C698.088,630.749 699.508,630.654 701.123,630.915C702.443,631.129 703.895,631.584 705.503,632.505C708.486,634.208 717.607,637.835 725.698,640.714C730.054,642.265 734.112,643.598 736.74,644.314C738.283,644.734 739.375,644.929 739.808,644.883C741.236,644.732 744.213,643.903 746.7,642.88C747.892,642.39 748.972,641.855 749.723,641.334C750.329,640.914 750.735,640.481 750.898,640.093C751.121,639.564 751.508,639.011 751.855,638.437C752.252,637.779 752.599,637.093 752.695,636.396C752.819,635.488 752.57,634.54 751.468,633.592C750.191,632.493 748.815,631.591 747.579,630.988C746.308,630.368 745.174,630.067 744.42,630.141C743.981,630.185 743.142,630.388 742.183,630.658C740.022,631.268 737.231,632.205 737.231,632.205C737.014,632.275 736.895,632.508 736.966,632.725C737.037,632.942 737.27,633.06 737.486,632.99C737.486,632.99 739.707,632.286 741.716,631.73C742.892,631.404 743.992,631.127 744.505,631.085C745.14,631.032 746.077,631.341 747.136,631.878C748.294,632.465 749.58,633.336 750.77,634.392C751.49,635.03 751.694,635.639 751.604,636.238C751.52,636.793 751.216,637.327 750.893,637.848C750.508,638.467 750.089,639.067 749.84,639.64C749.735,639.88 749.445,640.113 749.063,640.37C748.363,640.844 747.355,641.321 746.248,641.761C743.873,642.705 741.038,643.472 739.68,643.6C739.248,643.641 738.076,643.333 736.407,642.841C733.083,641.859 727.945,640.067 722.788,638.143C715.795,635.533 708.766,632.683 706.234,631.229C704.446,630.202 702.829,629.697 701.36,629.457C699.635,629.176 698.119,629.268 696.77,629.317C695.769,629.354 694.871,629.374 694.057,629.134C693.039,628.834 692.3,628.128 691.511,627.338C690.718,626.544 689.891,625.661 688.808,624.896C688.005,624.328 687.064,623.825 685.901,623.466C683.182,622.63 674.55,620.282 668.219,618.115C665.792,617.285 663.707,616.485 662.449,615.807C662.161,615.652 661.921,615.506 661.736,615.367C661.63,615.287 661.542,615.227 661.506,615.158C661.436,615.029 661.433,614.872 661.451,614.697C661.484,614.371 661.607,614.004 661.78,613.607C662.496,611.967 664.045,609.932 665.108,608.273C665.866,607.09 666.362,606.046 666.362,605.397C666.362,604.82 666.288,604.353 666.238,603.968C666.212,603.764 666.161,603.603 666.216,603.468C666.249,603.39 666.349,603.367 666.484,603.309C666.751,603.196 667.122,603.097 667.629,602.993C668.521,602.812 669.094,602.612 669.534,602.383C670,602.14 670.324,601.864 670.701,601.518C671.159,601.097 671.718,600.556 672.915,599.828C674.286,598.993 675.7,598.286 677.109,597.735C678.628,597.142 680.14,596.729 681.585,596.536C682.569,596.405 683.433,595.976 684.158,595.429C685.183,594.655 685.92,593.643 686.328,592.994C688.441,594.024 695.5,597.452 701.1,600.032C704.084,601.408 706.658,602.543 707.87,602.96C709.555,603.539 712.309,603.488 715.224,603.104C719.252,602.573 723.595,601.441 725.694,600.715C727.235,600.182 729.288,599.923 731.24,599.892C733.506,599.855 735.638,600.104 736.614,600.656C737.806,601.331 739.459,602.319 741.187,603.076C742.332,603.577 743.511,603.976 744.616,604.133C745.655,604.281 747.11,604.774 748.608,605.366C750.904,606.273 753.294,607.422 754.507,608.028C755.25,608.399 755.738,608.867 756.087,609.351C756.614,610.085 756.847,610.854 757.129,611.416C757.307,611.772 757.741,611.917 758.097,611.739C758.454,611.561 758.598,611.127 758.42,610.77Z" style="fill:rgb(128,128,128);"></path> <path d="M757.748,618.227C757.748,618.227 758.891,618.1 759.673,617.53C760.133,617.194 760.476,616.722 760.539,616.093C760.621,615.252 760.714,614.234 760.498,613.344C760.328,612.64 759.979,612.009 759.347,611.546C758.715,611.085 757.692,610.538 756.644,610.065C755.585,609.586 754.502,609.179 753.796,608.986C753.434,608.89 752.825,608.821 752.09,608.825C751.375,608.829 750.535,608.884 749.704,608.999C749.019,609.094 748.345,609.227 747.751,609.39C746.88,609.63 746.192,609.927 745.877,610.242C745.796,610.309 745.784,610.429 745.851,610.51C745.918,610.592 746.038,610.603 746.12,610.536C746.298,610.418 746.576,610.342 746.922,610.27C747.495,610.151 748.234,610.097 749.026,610.065C749.628,610.041 750.253,610.039 750.851,610.045C751.961,610.056 752.959,610.107 753.433,610.256C754.087,610.451 755.084,610.86 756.064,611.322C757.008,611.768 757.936,612.264 758.506,612.688C758.847,612.941 759.019,613.294 759.11,613.676C759.284,614.414 759.177,615.255 759.106,615.949C759.08,616.208 758.868,616.354 758.663,616.467C758.178,616.733 757.601,616.791 757.601,616.791C757.204,616.831 756.916,617.186 756.956,617.582C756.997,617.979 757.352,618.267 757.748,618.227Z" style="fill:rgb(128,128,128);"></path> <path d="M756.474,626.279C756.474,626.279 757.638,626.299 758.586,625.947C759.187,625.724 759.696,625.354 759.938,624.828C760.266,624.115 760.862,622.732 760.981,621.41C761.069,620.443 760.905,619.51 760.317,618.812C759.667,618.039 757.611,616.776 755.432,615.75C753.294,614.743 751.046,613.965 749.95,614.008C748.602,614.061 746.467,614.375 744.878,614.813C743.815,615.105 742.989,615.484 742.691,615.842C742.522,616.042 742.547,616.343 742.747,616.512C742.948,616.682 743.248,616.657 743.417,616.456C743.517,616.34 743.716,616.245 743.969,616.14C744.445,615.942 745.096,615.764 745.812,615.611C747.223,615.31 748.88,615.113 749.983,615.09C750.98,615.069 752.992,615.865 754.918,616.815C756.877,617.782 758.75,618.918 759.327,619.63C759.688,620.075 759.729,620.673 759.663,621.279C759.538,622.43 758.981,623.621 758.683,624.238C758.55,624.514 758.196,624.609 757.866,624.694C757.204,624.863 756.514,624.836 756.514,624.836C756.116,624.825 755.784,625.139 755.773,625.537C755.762,625.935 756.076,626.268 756.474,626.279Z" style="fill:rgb(128,128,128);"></path> <path d="M751.376,634.509C752.067,634.31 753.084,633.914 753.933,633.446C754.67,633.038 755.278,632.561 755.541,632.124C755.862,631.592 756.576,630.754 756.985,629.836C757.295,629.141 757.439,628.405 757.248,627.698C757.007,626.803 756.899,625.885 756.579,625.095C756.321,624.457 755.941,623.893 755.308,623.458C754.608,622.976 753.46,622.422 752.233,622.015C751.074,621.631 749.846,621.378 748.86,621.419C747.728,621.467 745.574,621.824 743.668,622.312C742.236,622.679 740.944,623.124 740.296,623.555C740.074,623.7 740.011,623.997 740.156,624.22C740.301,624.442 740.599,624.504 740.821,624.359C741.417,623.978 742.605,623.613 743.912,623.302C745.745,622.866 747.812,622.554 748.897,622.527C749.766,622.505 750.842,622.76 751.857,623.117C752.956,623.502 753.985,624.012 754.609,624.457C755.02,624.75 755.255,625.131 755.417,625.553C755.706,626.304 755.783,627.175 755.996,628.024C756.103,628.447 755.972,628.877 755.78,629.287C755.381,630.143 754.686,630.912 754.376,631.406C754.197,631.691 753.758,631.955 753.267,632.215C752.509,632.617 751.604,632.953 750.989,633.118C750.605,633.224 750.38,633.622 750.487,634.006C750.594,634.39 750.992,634.615 751.376,634.509Z" style="fill:rgb(128,128,128);"></path> <path d="M743.081,638.242C743.241,638.326 743.458,638.436 743.713,638.545C744.007,638.671 744.34,638.797 744.686,638.908C745.044,639.023 745.383,639.111 745.705,639.185C746.338,639.329 746.766,639.381 746.766,639.381C746.766,639.381 746.481,639.057 746.004,638.617C745.761,638.393 745.496,638.164 745.199,637.934C744.911,637.712 744.619,637.508 744.348,637.337C743.992,637.112 743.684,636.959 743.541,636.88C742.774,636.457 743.118,638.172 743.118,638.172L741.579,637.363L742.831,636.81C742.336,637.036 741.682,637.207 740.965,637.348C740.321,637.474 739.629,637.577 738.945,637.644C737.261,637.809 735.634,637.812 735.006,637.514C734.788,637.399 734.518,637.483 734.403,637.701C734.288,637.919 734.372,638.19 734.59,638.304C735.272,638.7 737.103,638.937 739.021,638.886C740.08,638.857 741.163,638.743 742.079,638.537C742.442,638.455 742.779,638.354 743.081,638.242Z" style="fill:rgb(128,128,128);"></path> <path d="M578.306,562.554C578.306,562.554 589.556,565.304 593.056,564.554C596.556,563.804 600.473,564.554 604.64,566.554C608.806,568.554 610.306,560.554 618.806,562.554C627.306,564.554 670.556,586.554 677.556,588.554C677.556,588.554 677.556,596.554 667.806,599.804C658.056,603.054 654.956,600.254 652.131,605.029C649.306,609.804 646.056,611.054 643.056,609.804C640.056,608.554 639.056,607.554 636.806,609.804C634.556,612.054 612.556,599.554 600.306,592.054C588.056,584.554 573.306,567.304 578.306,562.554Z" style="fill:none;stroke:rgb(128,128,128);stroke-width:1.44px;stroke-linecap:round;"></path> <path d="M673.376,612.114C673.376,612.114 674.652,611.334 676.674,610.398C677.348,610.086 678.099,609.767 678.909,609.427C679.387,609.226 679.884,609.023 680.393,608.805C681.112,608.498 681.846,608.166 682.628,607.884C683.169,607.688 683.713,607.5 684.282,607.337C685.124,607.096 685.974,606.895 686.876,606.781C685.956,606.665 685.065,606.628 684.172,606.671C683.553,606.702 682.953,606.772 682.36,606.872C681.745,606.976 681.152,607.113 680.577,607.282C680.18,607.399 679.795,607.53 679.426,607.682C679.042,607.84 678.677,608.018 678.328,608.205C677.765,608.507 677.247,608.825 676.774,609.151C676.072,609.634 675.483,610.113 674.988,610.544C673.935,611.458 673.376,612.114 673.376,612.114Z" style="fill:rgb(128,128,128);"></path> </g> </svg> 