<svg xmlns="http://www.w3.org/2000/svg" xmlns:xlink="http://www.w3.org/1999/xlink" xmlns:serif="http://www.serif.com/" width="100%" height="100%" viewBox="0 0 600 300" xml:space="preserve" style="fill-rule:evenodd;clip-rule:evenodd;stroke-linejoin:round;stroke-miterlimit:2;"> <g> <g transform="matrix(0.857143,0,0,0.857143,47.1429,-14.2857)"> <circle cx="295" cy="145" r="105" style="fill:rgb(255,221,103);"></circle> </g> <g transform="matrix(1.2,0,0,1.4,-60,-118)"> <path d="M252.65,179.165C251.906,177.008 252.393,174.676 253.964,172.873C255.535,171.071 258.006,170.01 260.631,170.01C279.848,170 320.152,170 339.369,170C341.998,170 344.472,171.063 346.045,172.868C347.619,174.672 348.106,177.007 347.361,179.168C342.292,193.598 329.066,220 300,220C270.934,220 257.708,193.598 252.65,179.165Z" style="fill:rgb(102,78,39);"></path> </g> <g transform="matrix(1.2,0,0,2.47704,-60,-334.949)"> <path d="M300,204.186C308.333,204.186 344.435,197.827 325,211.962C318.383,216.775 310.159,220 300,220C289.841,220 281.617,216.775 275,211.962C255.565,197.827 291.667,204.186 300,204.186Z" style="fill:rgb(255,113,127);"></path> </g> <g transform="matrix(3,0,0,1.4,-580,-146)"> <path d="M290,190L280,190L280,196.429C280,197.376 280.176,198.284 280.488,198.954C280.801,199.624 281.225,200 281.667,200C283.516,200 286.484,200 288.333,200C288.775,200 289.199,199.624 289.512,198.954C289.824,198.284 290,197.376 290,196.429L290,190Z" style="fill:white;"></path> </g> <g transform="matrix(3,0,0,1.4,-530,-146)"> <path d="M290,190L280,190L280,196.429C280,197.376 280.176,198.284 280.488,198.954C280.801,199.624 281.225,200 281.667,200C283.516,200 286.484,200 288.333,200C288.775,200 289.199,199.624 289.512,198.954C289.824,198.284 290,197.376 290,196.429C290,193.557 290,190 290,190Z" style="fill:white;"></path> </g> <g transform="matrix(1,7.40149e-17,0,0.666667,1.95399e-13,-6.66667)"> <path d="M225.33,160C225.33,160 226.98,153.677 232.403,148.997C234.403,147.27 237.057,146.805 240.413,146.073C243.129,145.481 246.274,145.29 250,145.621C253.733,145.248 256.884,145.369 259.608,145.946C262.983,146.661 265.65,147.14 267.658,148.884C273.073,153.586 274.67,160 274.67,160C274.67,164.413 277.058,167.995 280,167.995C282.942,167.995 285.33,164.413 285.33,160L283.695,143.777C282.665,139.263 280.624,134.793 277.676,130.079C274.219,124.55 268.959,119.881 261.301,116.673C258.049,115.31 254.281,114.766 250,114.379C245.717,114.702 241.938,115.194 238.681,116.532C230.994,119.69 225.728,124.421 222.264,129.966C219.307,134.699 217.245,139.175 216.228,143.714C214.144,153.021 214.67,160 214.67,160C214.67,164.413 217.058,167.995 220,167.995C222.942,167.995 225.33,164.413 225.33,160L225.33,160Z" style="fill:rgb(102,78,39);"></path> </g> <g transform="matrix(1,0,0,0.666667,100,-6.66667)"> <path d="M225.33,160C225.33,160 226.98,153.677 232.403,148.997C234.403,147.27 237.057,146.805 240.413,146.073C243.129,145.481 246.274,145.29 250,145.621C253.733,145.248 256.884,145.369 259.608,145.946C262.983,146.661 265.65,147.14 267.658,148.884C273.073,153.586 274.67,160 274.67,160C274.67,164.413 277.058,167.995 280,167.995C282.942,167.995 285.33,164.413 285.33,160L283.695,143.777C282.665,139.263 280.624,134.793 277.676,130.079C274.219,124.55 268.959,119.881 261.301,116.673C258.049,115.31 254.281,114.766 250,114.379C245.717,114.702 241.938,115.194 238.681,116.532C230.994,119.69 225.728,124.421 222.264,129.966C219.307,134.699 217.245,139.175 216.228,143.714C214.144,153.021 214.67,160 214.67,160C214.67,164.413 217.058,167.995 220,167.995C222.942,167.995 225.33,164.413 225.33,160L225.33,160Z" style="fill:rgb(102,78,39);"></path> </g> <g transform="matrix(1.01015,-1.01015,1.01015,1.01015,-236.092,393.046)"> <path d="M450,150C450,150 460.856,177.139 466.571,191.429C468.651,196.629 467.432,202.568 463.472,206.528C462.327,207.673 461.112,208.888 459.9,210.1C457.274,212.726 453.713,214.201 450,214.201C446.287,214.201 442.726,212.726 440.1,210.1C438.888,208.888 437.673,207.673 436.528,206.528C432.568,202.568 431.349,196.629 433.429,191.429C439.144,177.139 450,150 450,150Z" style="fill:rgb(101,177,239);"></path> </g> <g transform="matrix(-1.01015,-1.01015,-1.01015,1.01015,836.092,393.046)"> <path d="M450,150C450,150 460.856,177.139 466.571,191.429C468.651,196.629 467.432,202.568 463.472,206.528C462.327,207.673 461.112,208.888 459.9,210.1C457.274,212.726 453.713,214.201 450,214.201C446.287,214.201 442.726,212.726 440.1,210.1C438.888,208.888 437.673,207.673 436.528,206.528C432.568,202.568 431.349,196.629 433.429,191.429C439.144,177.139 450,150 450,150Z" style="fill:rgb(101,177,239);"></path> </g> <g transform="matrix(1,0,0,1,3.55271e-14,-50)"> <rect x="120" y="70" width="30" height="180" style="fill:rgb(102,78,39);"></rect> </g> <g transform="matrix(6.12323e-17,1,-0.444444,2.72144e-17,231.111,50)"> <rect x="120" y="70" width="30" height="180" style="fill:rgb(102,78,39);"></rect> </g> <g transform="matrix(-1,0,0,1,600,-50)"> <rect x="120" y="70" width="30" height="180" style="fill:rgb(102,78,39);"></rect> </g> <g transform="matrix(-6.12323e-17,1,0.444444,2.72144e-17,368.889,50)"> <rect x="120" y="70" width="30" height="180" style="fill:rgb(102,78,39);"></rect> </g> </g> <g transform="matrix(1.69724,0,0,1.45679,-393.143,-109.303)"> <text x="300.29px" y="266.404px" style="font-family:'Impact', sans-serif;font-stretch:condensed;font-size:50px;fill:rgb(255,221,103);">ERL<tspan x="366.256px 393.576px " y="266.404px 266.404px ">OL</tspan> 404</text> </g> </svg>