<svg xmlns="http://www.w3.org/2000/svg" xmlns:xlink="http://www.w3.org/1999/xlink" xmlns:serif="http://www.serif.com/" width="100%" height="100%" viewBox="0 0 1080 1080" xml:space="preserve" style="fill-rule:evenodd;clip-rule:evenodd;stroke-linejoin:round;stroke-miterlimit:2;"> <g> <g transform="matrix(1,0,0,1,-424.884,15.6468)"> <path d="M908.66,424.94L911.59,418.533L906.707,418.533L906.707,422.718L908.66,424.94Z" style="fill:rgb(77,77,77);"></path> </g> <g transform="matrix(1,0,0,1,-424.884,374.67)"> <path d="M984.655,30.622L986.29,18.85L981.873,23.101L984.655,30.622Z" style="fill:rgb(77,77,77);"></path> </g> <g transform="matrix(1,0,0,1,-424.884,374.67)"> <path d="M999.154,118.538L993.365,127.261L981.873,131.929L986.29,122.561L999.154,118.538Z" style="fill:rgb(77,77,77);"></path> </g> <g transform="matrix(1,0,0,1,-424.884,15.6468)"> <path d="M1072.79,400.35L1076.04,397.036L1072.79,386.922L1067.85,395.118L1072.79,400.35" style="fill:rgb(77,77,77);"></path> </g> <g transform="matrix(0.681311,0.0775812,-0.0914206,0.802847,-79.9645,15.0452)"> <path d="M988.639,304.786L973.724,283.021L979.539,272.812L982.107,260.945L988.639,243.748L991.908,272.087L988.639,304.786Z" style="fill:rgb(77,77,77);"></path> </g> </g> </svg>