<svg xmlns="http://www.w3.org/2000/svg" xmlns:xlink="http://www.w3.org/1999/xlink" xmlns:serif="http://www.serif.com/" width="100%" height="100%" viewBox="0 0 512 512" xml:space="preserve" style="fill-rule:evenodd;clip-rule:evenodd;stroke-linejoin:round;stroke-miterlimit:2;"> <g id="Layer1"> </g> <g id="Layer-7" serif:id="Layer 7" transform="matrix(2.24061,0,0,2.24061,5.68434e-14,107.675)"> <g transform="matrix(1,0,0,1,60.2878,92.6802)"> <path d="M0,-64.613C-4.186,-51.62 -9.573,-39.144 -15.272,-26.782C-17.862,-21.384 -18.66,-14.389 -15.637,-9.138C-11.74,-2.625 -4.226,-7.133 0,-10.951C-6.153,-1.256 -17.144,0 -20.875,-12.362C-22.38,-17.743 -21.531,-23.621 -19.163,-28.596C-13.357,-40.909 -7.263,-53.054 0,-64.613" style="fill-rule:nonzero;"></path> </g> <g transform="matrix(1,0,0,1,18.2297,33.8845)"> <path d="M0,31.479C27.569,21.287 55.105,10.965 83.015,1.739C83.015,1.74 88.394,0 88.394,0L85.723,4.786L70.827,31.479L81.699,2.91L84.407,5.956C80.926,7.128 77.436,8.273 73.933,9.379C49.399,17.105 24.709,24.332 0,31.479" style="fill-rule:nonzero;"></path> </g> <g transform="matrix(1,0,0,1,101.575,60.856)"> <path d="M0,-23.814C3.476,-26.139 7.221,-28.322 11.608,-28.131C15.204,-27.737 16.014,-24.127 15.017,-21.353C14.528,-19.521 13.39,-17.451 12.569,-15.781C11.715,-14.046 10.839,-12.322 9.928,-10.613C7.219,-5.453 4.398,-0.387 1.19,4.508C2.301,0.76 3.629,-2.887 5.008,-6.509C6.926,-11.831 9.533,-17.058 11.494,-22.342C11.744,-23.271 11.868,-23.993 11.632,-24.464C10.896,-24.876 9.845,-24.766 8.797,-24.628C6.07,-24.212 3.403,-23.281 0.733,-22.433L0,-23.814" style="fill-rule:nonzero;"></path> </g> <g transform="matrix(1,0,0,1,112.081,-1.0013)"> <path d="M0,132.961C16.959,92.247 32.802,50.842 55.914,13.006C58.154,9.818 63.627,-0.437 68.186,1.171C70.027,1.773 70.688,4.377 70.315,5.791C69.121,10.867 65.665,14.931 62.746,19.032C58.532,24.547 53.86,29.792 49.123,34.833C48.305,35.742 46.973,36.987 46.056,37.818C39.884,43.487 33.44,48.713 26.445,53.419C22.68,55.761 19.061,58.412 14.35,58.994C9.016,59.292 8.864,53.955 10.104,50.279C10.919,47.496 12.072,44.928 13.317,42.355C14.053,40.762 14.955,39.101 14.753,37.517C14.665,37.228 14.636,37.163 14.318,37.001C13.634,36.701 12.277,36.796 11.069,37.062C8.575,37.606 6.011,38.64 3.633,39.781L2.524,37.686C6.124,35.909 15.446,30.881 17.613,36.705C18.44,40.712 15.828,43.908 14.727,47.451C13.945,49.622 12.949,52.437 13.179,54.576C13.246,55.019 13.393,55.138 13.381,55.101C14.493,55.288 15.975,54.637 17.293,54.02C24.417,50.363 30.643,44.932 36.868,39.829C38.235,38.657 43.712,34.025 44.95,32.892C45.754,32.124 48.112,29.722 48.92,28.909C53.245,24.251 67.249,10.249 66.79,4.442C66.787,4.428 66.77,4.428 66.767,4.416C66.785,4.438 66.85,4.491 66.94,4.518C67.138,4.592 67.234,4.537 67.135,4.569C66.93,4.639 66.457,4.955 66.045,5.346C63.281,8.059 61.231,11.621 59.191,14.991C53.745,24.427 49.098,34.414 44.415,44.343C35.067,64.261 25.638,84.158 16.018,103.965C12.379,111.393 8.725,118.823 4.863,126.144C3.565,128.585 2.27,131.024 0.805,133.398L0,132.961" style="fill-rule:nonzero;"></path> </g> <g transform="matrix(1,0,0,1,0.4683,100.113)"> <path d="M0,32.065C8.399,22.956 19.967,17.629 31.206,12.885C46.703,6.749 63.751,2.893 80.308,1.107C84.745,0.666 89.642,0.208 94.082,0.208C95.626,0.199 99.542,0 101.058,0.124C105.284,0.285 109.716,1.542 112.746,4.707C119.447,12.135 116.6,24.308 112.015,32.065C113.019,26.234 114.121,20.23 113.295,14.446C111.624,3.905 103.047,3.801 94.204,4.382C89.87,4.444 85.065,4.806 80.723,5.206C61.255,6.847 42.249,12.326 24.441,20.231C18.672,22.656 5.746,29.277 0,32.065" style="fill-rule:nonzero;"></path> </g> <g transform="matrix(1,0,0,1,0,14.8682)"> <path d="M0,117.135C2.016,113.891 5.466,111.851 8.489,109.658C17.786,103.578 27.81,98.728 37.846,94.04C78.214,75.85 120.265,61.833 162.334,48.203C174.645,43.706 224.083,31.678 224.644,18.077C224.971,8.531 218.979,5.074 210.14,4.244C203.559,3.455 196.056,3.973 191.794,9.699C188.731,13.504 185.416,22.674 192.823,23.411C196.387,23.822 200.586,21.671 203.376,19.035C204.295,18.196 205.184,17.169 205.236,16.053C204.888,13.371 200.853,11.979 198.285,12.186C197.451,12.257 196.613,12.549 195.913,13.199C196.202,12.281 197.006,11.511 197.922,11.045C201.818,9.202 207.96,10.673 209.065,15.498C209.689,19.307 206.809,22.085 204.182,24.199C193.673,32.845 178.73,26.891 185.295,12.227C188.497,4.455 196.527,-0.35 204.846,0.133C214.625,0.1 226.927,2.589 228.255,14.363C228.466,15.902 228.549,17.372 228.491,18.912C228.312,21.694 226.727,24.319 225.036,26.189C219.614,31.952 212.698,35.192 205.805,38.516C192.183,44.689 178.071,49.229 163.988,53.51C135.836,62.033 107.825,71.022 80.109,80.814C59.379,88.233 38.665,95.894 18.919,105.65C12.91,108.813 6.638,111.855 1.678,116.554C1.383,116.848 1.074,117.255 0.937,117.485L0,117.135Z" style="fill-rule:nonzero;"></path> </g> </g> </svg>