<svg xmlns="http://www.w3.org/2000/svg" xmlns:xlink="http://www.w3.org/1999/xlink" xmlns:serif="http://www.serif.com/" width="100%" height="100%" viewBox="0 0 1200 400" xml:space="preserve" style="fill-rule:evenodd;clip-rule:evenodd;stroke-linejoin:round;stroke-miterlimit:2;"> <rect x="0" y="0" width="1200" height="300" style="fill:rgb(51,51,51);"></rect> <g transform="matrix(9.45685,0,0,9.45685,-2129.37,-1396.62)"> <path d="M327.69,161.429L321.393,161.429C321.393,157.2 322.417,154.904 324.175,152.862C325.933,150.819 328.431,149.798 331.67,149.798C335.088,149.798 337.578,150.734 339.141,152.605C340.703,154.477 341.484,156.658 341.484,159.148C341.484,161.085 341.11,162.709 340.361,164.019C339.613,165.329 338.351,166.774 336.577,168.352C335.324,169.475 334.563,170.326 334.294,170.904C334.026,171.481 333.892,172.543 333.892,174.09L328.032,174.09L328.032,172.991C328.032,170.957 328.142,169.496 328.362,168.609C328.582,167.722 329.424,166.562 330.889,165.13C332.109,163.942 332.952,162.92 333.416,162.066C333.879,161.211 334.111,160.19 334.111,159.002C334.111,157.911 333.826,157.098 333.257,156.56C332.687,156.023 332.02,155.755 331.255,155.755C328.895,155.755 327.69,157.2 327.69,161.429ZM334.233,181.521L327.69,181.521L327.69,176.531L334.233,176.531L334.233,181.521Z" style="fill:white;fill-rule:nonzero;"></path> </g> <g transform="matrix(0.779775,0,0,0.779775,161.593,85.4089)"> <text x="353.349px" y="377.79px" style="font-family:'Arial-BoldMT', 'Arial', sans-serif;font-weight:700;font-size:50px;fill:rgb(51,51,51);">Frequently <tspan x="620.975px 657.084px " y="377.79px 377.79px ">As</tspan>ked Question</text> </g> <g transform="matrix(1,0,0,1.58939,0,-223.969)"> <rect x="960" y="329.666" width="9.68" height="50.334" style="fill:rgb(51,51,51);"></rect> </g> </svg>