<svg xmlns="http://www.w3.org/2000/svg" xmlns:xlink="http://www.w3.org/1999/xlink" xmlns:serif="http://www.serif.com/" width="100%" height="100%" viewBox="0 0 50 50" xml:space="preserve" style="fill-rule:evenodd;clip-rule:evenodd;stroke-linejoin:round;stroke-miterlimit:2;"> <g transform="matrix(1.07091,0,0,1.07091,-97.9783,-420.364)"> <g transform="matrix(0.0466892,0,0,0.0466892,91.4907,392.529)"> <path d="M450,997.526L450,586.603L500,557.735L550,586.603L550,997.526C533.528,999.164 516.861,1000 500,1000C483.139,1000 466.472,999.164 450,997.526ZM94.13,207.936L450,413.398L450,471.133L400,500L44.13,294.539C50.948,279.455 58.557,264.602 66.987,250C75.418,235.398 84.476,221.382 94.13,207.936ZM955.87,294.539L600,500L550,471.133L550,413.398L905.87,207.936C915.524,221.382 924.582,235.398 933.013,250C941.443,264.602 949.052,279.455 955.87,294.539Z" style="fill:white;"></path> </g> <g transform="matrix(0.0466892,0,0,0.0466892,91.4907,392.529)"> <path d="M781.221,604.628C769.398,636.356 752.356,665.552 731.13,691.178L600,615.47L600,557.735L650,528.868L781.221,604.628ZM218.779,604.628L350,528.868L400,557.735L400,615.47L268.87,691.178C247.648,665.557 230.602,636.357 218.779,604.628ZM450,204.156C466.255,201.423 482.962,200 500,200C517.038,200 533.745,201.423 550,204.156L550,355.663L500,384.53L450,355.663L450,204.156Z" style="fill:white;"></path> </g> </g> </svg>