<svg xmlns="http://www.w3.org/2000/svg" xmlns:xlink="http://www.w3.org/1999/xlink" xmlns:serif="http://www.serif.com/" width="100%" height="100%" viewBox="0 0 512 512" xml:space="preserve" style="fill-rule:evenodd;clip-rule:evenodd;stroke-linejoin:round;stroke-miterlimit:2;"> <g id="Layer1"> </g> <g id="Ryan" transform="matrix(2.00622,0,0,2.00622,-197.477,49.427)"> <g transform="matrix(1,0,0,1,191.469,200.5)"> <path d="M0,-200C-1.653,-196.312 -3.342,-192.646 -5.089,-189.012L-7.691,-183.552L-10.362,-178.131C-13.905,-170.893 -17.542,-163.709 -21.245,-156.563L-26.837,-145.866L-32.517,-135.22L-38.276,-124.619L-44.11,-114.062L-50.379,-120.708C-47.065,-122.383 -43.877,-123.77 -40.423,-125.046C-38.702,-125.67 -36.945,-126.257 -35.073,-126.729C-33.189,-127.186 -31.242,-127.59 -28.897,-127.648C-27.721,-127.663 -26.414,-127.604 -24.839,-127.141C-24.055,-126.9 -23.198,-126.556 -22.324,-125.955C-21.467,-125.375 -20.611,-124.546 -20.024,-123.578C-18.805,-121.611 -18.667,-119.652 -18.724,-118.211C-18.803,-116.742 -19.095,-115.558 -19.43,-114.487C-20.108,-112.344 -20.975,-110.594 -21.877,-108.906L-23.217,-106.546L-24.5,-104.326C-31.369,-92.501 -38.32,-80.722 -45.432,-69.037C-52.532,-57.344 -59.75,-45.719 -67.145,-34.194C-74.572,-22.688 -82.061,-11.216 -90,0C-84.337,-12.518 -78.225,-24.781 -72.05,-37.009C-65.843,-49.218 -59.46,-61.327 -52.959,-73.369C-46.469,-85.417 -39.819,-97.373 -33.087,-109.282L-31.819,-111.512L-30.641,-113.62C-29.937,-114.947 -29.318,-116.296 -28.98,-117.421C-28.805,-117.98 -28.716,-118.478 -28.701,-118.718C-28.684,-118.971 -28.773,-118.792 -28.472,-118.284C-28.318,-118.056 -28.102,-117.827 -27.944,-117.731C-27.768,-117.626 -27.713,-117.613 -27.743,-117.624C-27.808,-117.654 -28.226,-117.732 -28.757,-117.717C-29.835,-117.709 -31.271,-117.472 -32.705,-117.124C-34.154,-116.778 -35.661,-116.331 -37.165,-115.82C-40.155,-114.806 -43.27,-113.509 -46.101,-112.184L-60.41,-105.488L-52.37,-118.831L-46.144,-129.162L-39.842,-139.449L-33.463,-149.692L-26.995,-159.883C-22.658,-166.663 -18.255,-173.404 -13.758,-180.092L-10.399,-185.115L-6.971,-190.099C-4.698,-193.428 -2.367,-196.725 0,-200" style="fill-rule:nonzero;"></path> </g> <g transform="matrix(1,0,0,1,201.469,168.305)"> <path d="M0,-77.805C-1.41,-77.421 -2.569,-76.675 -3.641,-75.854C-4.711,-75.027 -5.677,-74.085 -6.599,-73.107C-8.426,-71.13 -10.058,-68.978 -11.584,-66.762C-14.623,-62.32 -17.251,-57.612 -19.477,-52.815C-21.666,-48.016 -23.541,-43.095 -24.454,-38.252C-24.692,-37.048 -24.865,-35.85 -24.948,-34.679C-25.045,-33.536 -25.057,-32.321 -24.98,-31.115C-24.849,-28.711 -24.407,-26.353 -23.675,-24.086C-22.203,-19.561 -19.473,-15.408 -15.782,-12.176C-12.116,-8.96 -7.487,-6.602 -2.713,-5.978C2.217,-5.45 7.618,-6.376 12.594,-8.357C15.092,-9.355 17.517,-10.619 19.783,-12.171C22.044,-13.728 24.156,-15.563 25.914,-17.805C24.819,-15.175 23.128,-12.742 21.125,-10.618C19.118,-8.487 16.805,-6.621 14.286,-5.049C9.236,-1.922 3.388,0.155 -2.979,0.319C-6.236,0.367 -9.437,-0.223 -12.439,-1.291C-15.461,-2.326 -18.28,-3.868 -20.876,-5.732C-26.05,-9.478 -30.195,-14.809 -32.512,-20.912C-33.706,-23.948 -34.407,-27.164 -34.685,-30.383C-34.774,-31.188 -34.796,-31.992 -34.827,-32.797C-34.86,-33.595 -34.864,-34.456 -34.826,-35.27C-34.742,-36.914 -34.539,-38.516 -34.261,-40.084C-33.069,-46.338 -30.646,-51.992 -27.549,-57.135C-24.434,-62.265 -20.653,-66.938 -16.149,-70.886C-13.893,-72.848 -11.45,-74.635 -8.741,-76.015C-7.393,-76.706 -5.971,-77.289 -4.485,-77.658C-3.015,-78.028 -1.422,-78.172 0,-77.805" style="fill-rule:nonzero;"></path> </g> <g transform="matrix(1,0,0,1,149.507,11.3221)"> <path d="M0,79.178C4.266,78.688 8.519,78.217 12.693,77.519C16.865,76.81 20.951,75.87 24.815,74.517C28.664,73.127 32.289,71.346 35.511,69.009C38.766,66.725 41.637,63.938 44.239,60.886C46.839,57.831 49.149,54.472 51.283,50.981C52.345,49.231 53.365,47.443 54.357,45.635C55.264,43.928 55.885,42.324 56.339,40.652C57.224,37.337 57.061,34.047 55.945,31.001C54.826,27.964 52.727,25.139 50.071,22.982C47.441,20.815 44.218,19.291 41.589,19.282L28.793,19.045C20.256,18.881 11.715,18.668 3.176,18.388C-13.901,17.819 -30.977,17.045 -48.046,15.852L-51.075,15.641L-49.488,13.341C-47.844,10.957 -46.159,8.596 -44.497,6.223C-43.671,5.033 -42.808,3.864 -41.957,2.689C-41.107,1.513 -40.254,0.339 -39.378,-0.822C-39.945,0.517 -40.536,1.843 -41.129,3.167C-41.722,4.492 -42.302,5.823 -42.92,7.133C-44.144,9.76 -45.346,12.399 -46.588,15.015L-48.031,12.504C-30.956,11.383 -13.888,10.682 3.178,10.185C11.712,9.944 20.242,9.755 28.777,9.643L41.589,9.537L42.001,9.536L42.579,9.55C42.963,9.564 43.358,9.569 43.718,9.619C44.465,9.687 45.175,9.809 45.87,9.955C47.243,10.263 48.549,10.69 49.761,11.22C52.211,12.259 54.387,13.646 56.391,15.241C58.374,16.861 60.127,18.752 61.637,20.849C63.152,22.94 64.379,25.289 65.191,27.809C66.014,30.32 66.455,32.99 66.425,35.642C66.388,38.294 65.905,40.903 65.092,43.325C64.3,45.739 63.073,48.01 61.839,49.991C60.671,51.864 59.473,53.724 58.172,55.529C55.588,59.144 52.794,62.669 49.541,65.833C46.335,69.026 42.689,71.872 38.69,74.096C34.698,76.334 30.357,77.866 25.994,78.776C21.62,79.675 17.226,80 12.893,79.968C8.558,79.972 4.268,79.649 0,79.178" style="fill-rule:nonzero;"></path> </g> <g transform="matrix(1,0,0,1,201.469,90.5001)"> <path d="M0,0C-4.33,2.089 -8.66,3.134 -12.99,3.918C-17.321,4.674 -21.651,4.987 -25.981,4.999C-30.311,4.999 -34.641,4.686 -38.971,3.932C-43.302,3.151 -47.632,2.101 -51.962,0C-47.632,-2.101 -43.302,-3.151 -38.971,-3.932C-34.641,-4.686 -30.311,-4.999 -25.981,-4.999C-21.651,-4.987 -17.321,-4.674 -12.99,-3.918C-8.66,-3.134 -4.33,-2.089 0,0" style="fill-rule:nonzero;"></path> </g> <g transform="matrix(1,0,0,1,259.507,138.445)"> <path d="M0,-47.945C-1.026,-45.204 -2.113,-42.498 -3.242,-39.817C-4.373,-37.136 -5.529,-34.471 -6.726,-31.828C-7.908,-29.178 -9.138,-26.554 -10.369,-23.932C-11.615,-21.318 -12.863,-18.705 -14.153,-16.116L-14.195,-16.032L-14.422,-15.714C-14.856,-15.107 -15.192,-14.662 -15.584,-14.164C-15.965,-13.682 -16.345,-13.203 -16.746,-12.744C-17.541,-11.821 -18.364,-10.928 -19.218,-10.058C-20.923,-8.316 -22.759,-6.679 -24.762,-5.2C-28.727,-2.217 -33.404,0.217 -38.727,1.304C-40.06,1.542 -41.415,1.734 -42.794,1.771C-43.448,1.806 -44.251,1.817 -45.008,1.759C-45.773,1.716 -46.533,1.608 -47.285,1.471C-50.298,0.905 -53.107,-0.459 -55.46,-2.316C-60.189,-6.004 -63.094,-11.986 -62.911,-18.042C-62.801,-21.281 -61.902,-23.971 -60.774,-26.408C-59.634,-28.836 -58.23,-31.008 -56.644,-32.986C-55.069,-34.972 -53.327,-36.772 -51.446,-38.384C-49.581,-40.013 -47.569,-41.442 -45.476,-42.704C-37.12,-47.75 -27.09,-49.762 -18.038,-47.945C-27.065,-46.178 -35.054,-42.422 -41.404,-36.966C-44.577,-34.261 -47.346,-31.152 -49.511,-27.812C-50.567,-26.133 -51.507,-24.412 -52.16,-22.693C-52.793,-20.985 -53.195,-19.261 -53.157,-17.968C-53.111,-16.467 -52.739,-14.979 -52.078,-13.622C-51.397,-12.273 -50.415,-11.064 -49.249,-10.105C-48.084,-9.132 -46.7,-8.504 -45.294,-8.144C-44.939,-8.065 -44.582,-7.99 -44.22,-7.956C-43.853,-7.909 -43.525,-7.894 -43.051,-7.905C-42.17,-7.888 -41.279,-7.997 -40.384,-8.11C-33.208,-9.14 -25.77,-14.342 -20.219,-20.175L-20.488,-19.774C-18.891,-22.185 -17.253,-24.573 -15.612,-26.959C-13.956,-29.336 -12.299,-31.713 -10.594,-34.062C-8.905,-36.419 -7.174,-38.754 -5.418,-41.073C-3.66,-43.392 -1.861,-45.686 0,-47.945" style="fill-rule:nonzero;"></path> </g> <g transform="matrix(1,0,0,1,279.507,140.468)"> <path d="M0,-49.968C-1.316,-45.372 -2.975,-40.979 -4.722,-36.637C-6.48,-32.302 -8.37,-28.044 -10.378,-23.854C-11.359,-21.738 -12.411,-19.701 -13.451,-17.585C-14.677,-15.3 -15.909,-13.204 -17.406,-11.143C-18.887,-9.092 -20.509,-7.081 -22.522,-5.219C-24.537,-3.376 -26.863,-1.494 -30.409,-0.476C-30.849,-0.352 -31.302,-0.245 -31.791,-0.177C-32.261,-0.09 -32.764,-0.052 -33.272,-0.034C-33.805,0 -34.201,-0.042 -34.66,-0.061C-35.115,-0.102 -35.587,-0.166 -36.064,-0.257C-37.028,-0.446 -38.056,-0.782 -39.058,-1.303C-40.065,-1.835 -41.021,-2.588 -41.788,-3.465C-43.37,-5.249 -43.984,-7.324 -44.226,-9.065C-44.448,-10.83 -44.341,-12.414 -44.085,-13.888C-43.51,-16.824 -42.496,-19.402 -40.907,-21.834C-39.595,-23.835 -38.308,-25.711 -36.979,-27.64C-34.333,-31.467 -31.631,-35.262 -28.813,-38.991C-26.001,-42.722 -23.11,-46.409 -20,-49.968C-21.527,-45.495 -23.274,-41.148 -25.1,-36.847C-26.92,-32.543 -28.855,-28.305 -30.847,-24.099C-31.835,-22.01 -32.874,-19.874 -33.871,-17.853C-34.547,-16.24 -35.049,-14.348 -35.115,-12.692C-35.168,-11.871 -35.114,-11.112 -34.974,-10.584C-34.826,-10.056 -34.622,-9.853 -34.62,-9.918C-34.609,-9.937 -34.637,-9.969 -34.612,-9.97C-34.572,-9.981 -34.491,-9.952 -34.312,-9.936L-33.992,-9.923C-33.871,-9.933 -33.688,-9.905 -33.641,-9.93C-33.57,-9.937 -33.495,-9.933 -33.395,-9.965C-33.308,-9.972 -33.199,-10.005 -33.082,-10.044C-32.142,-10.314 -30.633,-11.288 -29.238,-12.544C-27.838,-13.826 -26.426,-15.347 -25.099,-16.984C-23.799,-18.621 -22.44,-20.383 -21.331,-22.104C-20.054,-24.006 -18.785,-25.985 -17.449,-27.885C-14.818,-31.728 -12.071,-35.503 -9.191,-39.2C-6.301,-42.892 -3.322,-46.531 0,-49.968" style="fill-rule:nonzero;"></path> </g> <g transform="matrix(1,0,0,1,299.372,140.495)"> <path d="M0,-49.995C-2.798,-40.894 -6.514,-32.334 -10.48,-23.92C-11.476,-21.808 -12.486,-19.753 -13.554,-17.641C-14.721,-15.331 -16.03,-13.281 -17.472,-11.185C-18.95,-9.132 -20.576,-7.129 -22.562,-5.238C-23.569,-4.305 -24.665,-3.397 -25.937,-2.561C-27.212,-1.737 -28.667,-0.942 -30.455,-0.465C-30.893,-0.339 -31.355,-0.238 -31.845,-0.17C-32.314,-0.083 -32.826,-0.054 -33.333,-0.033C-33.866,0 -34.251,-0.049 -34.716,-0.064C-35.181,-0.109 -35.645,-0.158 -36.133,-0.254C-37.101,-0.432 -38.146,-0.775 -39.158,-1.298C-40.177,-1.827 -41.135,-2.61 -41.901,-3.495C-43.471,-5.309 -44.1,-7.38 -44.361,-9.135C-44.609,-10.908 -44.48,-12.506 -44.233,-13.991C-43.709,-16.963 -42.684,-19.55 -41.112,-22.052C-39.821,-24.047 -38.493,-25.916 -37.183,-27.852C-31.821,-35.473 -26.272,-42.986 -19.864,-49.995C-22.792,-40.96 -26.579,-32.429 -30.552,-24.006C-31.574,-21.93 -32.585,-19.791 -33.621,-17.771C-34.327,-16.231 -34.823,-14.347 -34.957,-12.728C-35.024,-11.916 -34.955,-11.171 -34.853,-10.648C-34.733,-10.129 -34.556,-9.92 -34.558,-10C-34.552,-10.023 -34.593,-10.064 -34.576,-10.065C-34.551,-10.072 -34.49,-10.03 -34.314,-10.008C-34.233,-9.993 -34.117,-9.99 -34.006,-9.976C-33.892,-9.988 -33.697,-9.955 -33.651,-9.981C-33.579,-9.993 -33.51,-9.981 -33.41,-10.015C-33.323,-10.023 -33.22,-10.048 -33.102,-10.091C-32.169,-10.333 -30.625,-11.265 -29.242,-12.539C-27.809,-13.789 -26.397,-15.319 -25.064,-16.955C-23.706,-18.558 -22.421,-20.368 -21.249,-22.065C-19.999,-23.974 -18.687,-25.937 -17.364,-27.844C-12.048,-35.505 -6.483,-43.021 0,-49.995" style="fill-rule:nonzero;"></path> </g> <g transform="matrix(1,0,0,1,319.236,205.442)"> <path d="M0,-114.942C-11.212,-91.118 -23.557,-67.814 -36.048,-44.767C-39.156,-38.998 -42.182,-33.173 -45.464,-27.379C-47.108,-24.481 -48.788,-21.57 -50.664,-18.701C-52.541,-15.835 -54.575,-12.977 -57.047,-10.264C-59.484,-7.557 -62.475,-4.981 -66.047,-3.162C-67.824,-2.259 -69.708,-1.516 -71.628,-1.026C-73.545,-0.543 -75.482,-0.226 -77.379,-0.101C-78.348,-0.041 -79.22,0 -80.25,-0.011C-81.282,-0.03 -82.326,-0.107 -83.365,-0.275C-85.445,-0.594 -87.512,-1.216 -89.445,-2.135C-93.314,-3.994 -96.542,-7.02 -98.702,-10.528C-100.904,-14.031 -102.131,-17.98 -102.505,-21.94C-102.889,-25.904 -102.438,-29.901 -101.258,-33.643C-98.923,-41.185 -93.556,-47.422 -87.281,-51.418C-84.145,-53.456 -80.788,-55.004 -77.368,-56.182C-73.939,-57.328 -70.452,-58.122 -66.967,-58.64C-63.481,-59.149 -59.997,-59.394 -56.538,-59.42L-53.968,-59.406L-51.505,-59.355L-46.58,-59.254C-20.309,-58.696 5.962,-57.736 32.233,-56.151L34.403,-56.02L33.28,-54.337C31.674,-51.931 30.099,-49.507 28.468,-47.115C26.839,-44.723 25.232,-42.317 23.573,-39.942C24.8,-42.566 26.08,-45.161 27.337,-47.768C28.593,-50.377 29.904,-52.953 31.185,-55.547L32.233,-53.733C5.962,-52.148 -20.309,-51.188 -46.58,-50.63L-51.505,-50.529L-53.968,-50.478L-56.324,-50.405C-59.429,-50.271 -62.507,-49.995 -65.508,-49.471C-71.494,-48.422 -77.233,-46.477 -81.947,-43.317C-86.666,-40.192 -90.213,-35.743 -91.785,-30.681C-93.372,-25.656 -92.823,-19.969 -90.234,-15.799C-88.963,-13.71 -87.189,-12.09 -85.142,-11.079C-84.109,-10.586 -83.003,-10.243 -81.839,-10.057C-81.26,-9.956 -80.66,-9.911 -80.053,-9.896C-79.442,-9.879 -78.67,-9.895 -78.001,-9.925C-75.239,-10.073 -72.706,-10.645 -70.402,-11.79C-69.24,-12.341 -68.136,-13.062 -67.061,-13.894C-65.978,-14.707 -64.936,-15.662 -63.928,-16.71C-61.904,-18.791 -60.026,-21.236 -58.231,-23.811C-56.435,-26.388 -54.686,-29.081 -52.98,-31.832L-42.779,-48.62C-41.068,-51.434 -39.304,-54.229 -37.552,-57.022L-32.288,-65.347L-21.687,-81.963C-14.541,-92.998 -7.432,-104.059 0,-114.942" style="fill-rule:nonzero;"></path> </g> </g> </svg>