<svg xmlns="http://www.w3.org/2000/svg" xmlns:xlink="http://www.w3.org/1999/xlink" xmlns:serif="http://www.serif.com/" width="100%" height="100%" viewBox="0 0 512 512" xml:space="preserve" style="fill-rule:evenodd;clip-rule:evenodd;stroke-linejoin:round;stroke-miterlimit:2;"> <g id="Layer1"> </g> <g id="Layer-3" serif:id="Layer 3" transform="matrix(2.70838,0,0,2.70838,30.9995,60.4493)"> <g transform="matrix(1,0,0,1,110.703,52.914)"> <path d="M0,91.49C6.36,77.091 13.954,63.371 21.416,49.548C29.06,35.86 36.37,21.976 44.635,8.647L48.816,12.143C45.249,15.418 41.576,18.566 37.881,21.689C30.479,27.924 22.944,33.998 15.291,39.927C11.354,42.763 8.103,46.411 2.682,47.49C4.653,42.326 8.793,39.731 12.247,36.323C19.372,29.77 26.621,23.357 34.006,17.101C40.192,11.743 48.91,5.07 55.448,0C46.468,17.711 35.87,35.029 25.614,51.972C17.375,65.346 9.29,78.782 0,91.49" style="fill-rule:nonzero;"></path> </g> <g transform="matrix(1,0,0,1,113.385,64.001)"> <path d="M0,36.403C-0.345,31.88 1.014,28.147 2.553,24.478C5.536,16.867 9.54,7.09 11.034,0.193C11.101,0.361 11.237,0.808 11.864,1.266C12.338,1.606 13.079,1.762 13.55,1.653C13.825,1.595 13.825,1.576 13.844,1.573C13.685,1.657 13.537,1.757 13.34,1.895C3.051,10.683 -6.142,21.363 -14.847,31.803C-16.735,34.245 -18.919,36.818 -20.213,39.466C-20.029,38.528 -21.084,37.348 -22.084,37.423C-15.827,33.881 -4.534,7.55 -3.943,0.04C-3.932,-0.069 -4.002,-0.205 -3.887,0.063C-3.831,0.184 -3.602,0.517 -3.161,0.68C-2.859,0.784 -2.661,0.792 -2.439,0.738C-5.64,2.873 -8.611,6.384 -11.401,9.286C-16.766,15.155 -21.987,21.193 -27.144,27.257L-31,31.833C-32.286,33.36 -33.445,34.981 -35.5,35.903C-35.086,33.687 -33.761,32.183 -32.554,30.591L-28.901,25.835C-26.454,22.672 -23.987,19.524 -21.488,16.396C-17.722,11.7 -13.877,7.06 -9.79,2.616C-7.907,0.878 -3.145,-5.561 -0.639,-1.612C-0.299,-0.894 -0.321,-0.519 -0.278,-0.133C-0.325,3.312 -1.408,6.145 -2.34,9.277C-4.927,17.01 -8.061,24.435 -12,31.596C-13.558,34.327 -15.199,37.073 -17.427,39.424C-18.618,40.644 -20.163,41.898 -22.085,41.923C-23.905,41.964 -25.022,40.145 -24.661,38.666C-23.544,34.93 -20.755,31.963 -18.581,28.878C-13.644,22.482 -8.431,16.387 -3.034,10.392C-0.335,7.401 2.421,4.467 5.352,1.62C7.049,0.019 8.8,-1.761 11.011,-3.126C11.531,-3.397 11.82,-3.588 12.585,-3.741C15.075,-4.201 16.637,-1.895 16.446,0.125C15.895,5.505 13.526,10.422 11.742,15.276C10.237,19.016 8.625,22.693 7.002,26.36C5.427,30.045 3.607,33.638 0,36.403" style="fill-rule:nonzero;"></path> </g> <g transform="matrix(1,0,0,1,39.3111,87.018)"> <path d="M0,12.886C1.799,9.181 5.11,6.966 8.018,4.273C11.873,1.196 15.97,-2.065 20.783,-3.933C21.211,-4.083 22.092,-4.316 22.539,-4.397C24.22,-4.668 26.174,-4.534 27.5,-2.828C30.803,2.103 24.137,10.535 20.411,13.5L19.025,12.006C20.67,10.614 22.439,9.482 24.299,8.437C28.444,6.125 38.374,2.072 39.464,9.597C39.517,10.828 39.171,11.945 38.574,12.886C38.374,11.802 38.089,10.804 37.687,10.014C36.354,7.614 33.869,8.531 31.261,9.229C27.517,10.45 23.819,12.266 20.124,13.766L16.955,17.554L18.737,12.272C20.007,8.175 22.72,4.139 23.388,0.063C23.401,-0.128 23.352,-0.089 23.514,0.13C23.694,0.359 23.946,0.387 23.827,0.334C23.673,0.24 22.908,0.283 22.62,0.321C16.297,1.709 10.612,6.526 5.152,10.027C3.568,11.123 2.053,12.29 0,12.886" style="fill-rule:nonzero;"></path> </g> <g transform="matrix(1,0,0,1,104.385,103.357)"> <path d="M0,-103.357C-7.36,-94.134 -15.556,-85.707 -23.592,-77.103C-37.958,-61.971 -57.814,-40.688 -72.623,-26.435C-81.043,-18.238 -89.571,-10.148 -98.469,-2.427C-98.468,-2.427 -99.922,-4.849 -99.915,-4.847C-93.659,-6.571 -87.471,-8.183 -81.094,-9.428C-77.891,-10.006 -74.628,-10.416 -71.217,-10.188C-69.526,-10.033 -67.718,-9.864 -65.99,-8.741C-64.14,-7.641 -63.477,-5.021 -65.074,-3.453C-65.315,-5.032 -65.845,-5.917 -67.282,-6.255C-71.469,-7.265 -76.166,-6.488 -80.567,-6.029C-88.595,-5 -96.9,-3.177 -104.385,0C-81.094,-27.615 -52.406,-54.664 -26.158,-79.659C-17.586,-87.729 -9.194,-95.959 0,-103.357" style="fill-rule:nonzero;"></path> </g> </g> </svg>