<svg xmlns="http://www.w3.org/2000/svg" xmlns:xlink="http://www.w3.org/1999/xlink" xmlns:serif="http://www.serif.com/" width="100%" height="100%" viewBox="0 0 1080 1080" xml:space="preserve" style="fill-rule:evenodd;clip-rule:evenodd;stroke-miterlimit:13;"> <g id="Cable-5" serif:id="Cable 5"> <g transform="matrix(1,0,0,1,-262.751,0)"> <path d="M443.775,560.904C443.775,560.904 447.204,559.476 447.347,557.904C447.347,557.904 425.061,531.333 390.918,543.904L392.49,547.047C392.49,547.047 426.633,538.19 443.775,560.904Z" style="fill:rgb(242,242,242);"></path> </g> <g transform="matrix(1,0,0,1,-262.751,0)"> <path d="M400.016,543.521C400.016,543.521 401.722,543.247 404.628,543.204C406.482,543.176 408.817,543.258 411.519,543.545C413.158,543.719 414.927,543.971 416.807,544.323C417.538,544.459 418.286,544.609 419.05,544.77C420.017,544.973 421.009,545.197 422.024,545.448C423.455,545.801 424.929,546.203 426.438,546.687C427.853,547.141 429.295,547.655 430.765,548.246C432.821,549.072 434.919,550.032 437.044,551.188C435.035,549.815 433.041,548.624 431.057,547.606C429.625,546.871 428.207,546.229 426.806,545.666C425.303,545.062 423.827,544.548 422.381,544.125C421.352,543.824 420.34,543.57 419.349,543.359C418.565,543.192 417.795,543.055 417.04,542.941C415.106,542.651 413.281,542.497 411.596,542.44C408.839,542.345 406.468,542.503 404.597,542.714C401.691,543.041 400.016,543.521 400.016,543.521Z" style="fill:rgb(128,128,128);"></path> </g> <g transform="matrix(1,0,0,1,-262.751,0)"> <path d="M443.775,560.904C443.775,560.904 447.204,559.476 447.347,557.904C447.347,557.904 425.061,531.333 390.918,543.904L392.49,547.047C392.49,547.047 426.633,538.19 443.775,560.904Z" style="fill:none;stroke:rgb(128,128,128);stroke-width:1.44px;"></path> </g> </g> </svg>