<svg xmlns="http://www.w3.org/2000/svg" xmlns:xlink="http://www.w3.org/1999/xlink" xmlns:serif="http://www.serif.com/" width="100%" height="100%" viewBox="0 0 1080 1080" xml:space="preserve" style="fill-rule:evenodd;clip-rule:evenodd;stroke-miterlimit:13;"> <g id="Shard2"> <g transform="matrix(1,0,0,1,-262.751,0)"> <path d="M436.333,397.154L424.999,411.988C424.999,411.988 417.999,415.654 415.833,415.321C413.666,414.988 409.499,417.821 409.499,417.821L393.999,427.488L399.166,417.821C399.166,417.821 402.333,406.154 403.666,404.488C403.666,404.488 410.833,402.821 415.833,402.654C420.833,402.488 432.333,399.321 436.333,397.154Z" style="fill:rgb(242,242,242);"></path> </g> <g transform="matrix(1,0,0,1,-262.751,0)"> <path d="M395.499,425.488L403.388,417.763L407.666,408.975C407.666,408.975 413.22,409.101 417.787,407.309C420.039,406.425 421.887,408.463 424.119,407.309C428.948,404.811 433.735,398.988 435.333,398.154" style="fill:none;stroke:rgb(128,128,128);stroke-width:1.44px;"></path> </g> <g transform="matrix(1,0,0,1,-262.751,0)"> <path d="M436.333,397.154L424.999,411.988C424.999,411.988 417.999,415.654 415.833,415.321C413.666,414.988 409.499,417.821 409.499,417.821L393.999,427.488L399.166,417.821C399.166,417.821 402.333,406.154 403.666,404.488C403.666,404.488 410.833,402.821 415.833,402.654C420.833,402.488 432.333,399.321 436.333,397.154Z" style="fill:none;stroke:rgb(128,128,128);stroke-width:1.44px;"></path> </g> </g> </svg>