<svg xmlns="http://www.w3.org/2000/svg" xmlns:xlink="http://www.w3.org/1999/xlink" xmlns:serif="http://www.serif.com/" width="100%" height="100%" viewBox="0 0 1080 1080" xml:space="preserve" style="fill-rule:evenodd;clip-rule:evenodd;stroke-miterlimit:13;"> <g id="Cable-5" serif:id="Cable 5"> <g transform="matrix(1,0,0,1,-262.751,0)"> <path d="M817.06,155.292C816.381,155.834 815.95,156.277 815.95,156.277C815.95,156.277 815.95,168.868 808.82,183.432C801.69,197.995 786.823,206.339 779.845,226.061C772.867,245.782 777.873,257.16 777.873,257.16L778.185,256.872L778.247,257.073L779.763,267.395L781.565,267.395L780.295,255.762L780.295,255.677L782.272,257.16L782.463,256.996C782.463,256.996 782.51,257.027 782.548,257.073C784.023,259.449 792.002,263.987 792.002,263.987C792.452,263.618 792.911,261.988 792.911,261.988C790.167,261.087 784.064,255.762 784.064,255.762L783.98,255.696L784.396,255.339C784.396,255.339 779.845,245.175 786.368,228.033C790.698,216.653 800.109,205.942 807.412,197.231C807.762,196.813 808.04,196.353 808.272,195.868C808.264,195.916 808.267,195.905 808.267,195.905L814.896,186.687C814.896,186.687 814.885,186.762 814.892,186.774C815.354,186.467 815.73,186.128 815.95,185.707C820.957,176.15 823.991,154.76 823.991,154.76C823.455,153.987 822.821,153.575 822.147,153.413C821.819,153.334 822.207,153.695 822.259,153.08C822.31,152.466 824.102,145.554 824.46,144.274L822.259,143.711L819.75,153.08C819.75,153.08 819.754,152.998 819.76,152.936C819.483,151.627 818.619,147.863 817.651,146.936L815.398,148.063C815.398,148.063 817.241,153.9 817.087,155.231C817.083,155.284 817.092,155.263 817.06,155.292Z" style="fill:rgb(242,242,242);"></path> </g> <g transform="matrix(1,0,0,1,-262.751,0)"> <path d="M785.661,263.749C785.661,263.749 782.909,258.244 782.171,256.77" style="fill:none;stroke:rgb(128,128,128);stroke-width:1.44px;"></path> </g> <g transform="matrix(1,0,0,1,-262.751,0)"> <path d="M780.828,256.172C780.828,256.172 782.343,263.626 782.999,265.306" style="fill:none;stroke:rgb(128,128,128);stroke-width:1.44px;"></path> </g> <g transform="matrix(1,0,0,1,-262.751,0)"> <path d="M778.247,257.073L779.763,267.395L781.565,267.395L780.295,255.762" style="fill:none;stroke:rgb(128,128,128);stroke-width:1.44px;"></path> </g> <g transform="matrix(1,0,0,1,-262.751,0)"> <path d="M784.064,255.762C784.064,255.762 790.167,261.087 792.911,261.988C792.911,261.988 792.452,263.618 792.002,263.987C792.002,263.987 784.023,259.449 782.548,257.073" style="fill:none;stroke:rgb(128,128,128);stroke-width:1.44px;"></path> </g> <g transform="matrix(1,0,0,1,-262.751,0)"> <path d="M822.361,152.927C822.361,152.927 825.689,147.397 826.764,146.732" style="fill:none;stroke:rgb(128,128,128);stroke-width:1.44px;"></path> </g> <g transform="matrix(1,0,0,1,-262.751,0)"> <path d="M823.436,153.336C823.436,153.336 825.638,149.087 828.505,149.292" style="fill:none;stroke:rgb(128,128,128);stroke-width:1.44px;"></path> </g> <g transform="matrix(1,0,0,1,-262.751,0)"> <path d="M822.259,153.08C822.31,152.466 824.102,145.554 824.46,144.274L822.259,143.711L819.75,153.08" style="fill:none;stroke:rgb(128,128,128);stroke-width:1.44px;"></path> </g> <g transform="matrix(1,0,0,1,-262.751,0)"> <path d="M819.852,153.388C819.852,153.388 818.828,148.063 817.651,146.936L815.398,148.063C815.398,148.063 817.241,153.9 817.087,155.231" style="fill:none;stroke:rgb(128,128,128);stroke-width:1.44px;"></path> </g> <g transform="matrix(1,0,0,1,-262.751,0)"> <path d="M776.78,251.839C776.78,251.839 777.977,251.051 779.408,250.799C780.053,250.686 780.716,250.669 781.35,250.872C780.764,250.475 780.081,250.299 779.39,250.222C777.749,250.037 776.192,250.521 776.192,250.521L776.78,251.839Z" style="fill:rgb(128,128,128);"></path> </g> <g transform="matrix(1,0,0,1,-262.751,0)"> <path d="M785.632,230.685C785.632,230.685 784.71,230.086 783.646,229.869C783.164,229.77 782.698,229.73 782.271,229.88C782.68,229.921 783.051,230.128 783.411,230.396C784.151,230.947 784.646,231.739 784.646,231.739L785.632,230.685Z" style="fill:rgb(128,128,128);"></path> </g> <g transform="matrix(1,0,0,1,-262.751,0)"> <path d="M802.315,203.093C802.315,203.093 801.753,202.531 800.858,202.155C800.374,201.952 799.856,201.79 799.27,201.823C799.661,201.992 799.962,202.239 800.24,202.52C800.879,203.168 801.14,203.932 801.14,203.932L802.315,203.093Z" style="fill:rgb(128,128,128);"></path> </g> <g transform="matrix(1,0,0,1,-262.751,0)"> <path d="M823.23,159.329C823.23,159.329 821.569,159.31 819.943,159.482C819.135,159.567 818.362,159.691 817.804,159.89C818.382,159.847 819.143,159.93 819.926,160.059C821.485,160.316 823.028,160.758 823.028,160.758L823.23,159.329Z" style="fill:rgb(128,128,128);"></path> </g> <g transform="matrix(1,0,0,1,-262.751,0)"> <path d="M812.479,175.153C812.479,175.153 813.669,174.983 815.167,175.132C816.034,175.218 816.972,175.393 817.855,175.762C817.069,175.161 816.174,174.742 815.33,174.428C813.786,173.855 812.479,173.709 812.479,173.709L812.479,175.153Z" style="fill:rgb(128,128,128);"></path> </g> <g transform="matrix(1,0,0,1,-262.751,0)"> <path d="M814.896,186.687L808.267,195.905" style="fill:none;stroke:rgb(128,128,128);stroke-width:1.44px;"></path> </g> <g transform="matrix(1,0,0,1,-262.751,0)"> <path d="M784.396,255.339L782.272,257.16L779.845,255.339L777.873,257.16C777.873,257.16 772.867,245.782 779.845,226.061C786.823,206.339 801.69,197.995 808.82,183.432C815.95,168.868 815.95,156.277 815.95,156.277C815.95,156.277 821.26,150.816 823.991,154.76C823.991,154.76 820.957,176.15 815.95,185.707C815.115,187.301 812.029,187.731 810.582,189.641C809.113,191.582 809.275,195.008 807.412,197.231C800.109,205.942 790.698,216.653 786.368,228.033C779.845,245.175 784.396,255.339 784.396,255.339Z" style="fill:none;stroke:rgb(128,128,128);stroke-width:1.44px;"></path> </g> </g> </svg>