<svg xmlns="http://www.w3.org/2000/svg" xmlns:xlink="http://www.w3.org/1999/xlink" xmlns:serif="http://www.serif.com/" width="100%" height="100%" viewBox="0 0 1080 1080" xml:space="preserve" style="fill-rule:evenodd;clip-rule:evenodd;stroke-linejoin:round;stroke-miterlimit:2;"> <g> <g transform="matrix(1,0,0,1,-424.884,15.6468)"> <path d="M887.872,421.736L885.221,418.533L887.872,414.766L893.174,421.736L887.872,421.736" style="fill:rgb(77,77,77);"></path> </g> <g transform="matrix(1,0,0,1,-424.884,374.67)"> <path d="M974.63,100.767L977.491,109.481L960,116.634L974.63,100.767Z" style="fill:rgb(77,77,77);"></path> </g> <g transform="matrix(1,0,0,1,-424.884,240.674)"> <path d="M972.589,135.584L974.984,120.017L960,97.664L968.997,129.996L972.589,135.584Z" style="fill:rgb(77,77,77);"></path> </g> <g transform="matrix(1,0,0,1,-424.884,15.6468)"> <path d="M1088.77,430.172L1093.48,428.776L1090.52,424.94L1088.77,430.172Z" style="fill:rgb(77,77,77);"></path> </g> <g transform="matrix(1,0,0,0.5,-425.059,225.327)"> <path d="M1030.35,408.198L1029.13,403.315L1035.06,386.922L1035.06,400.35L1030.35,408.198Z" style="fill:rgb(77,77,77);"></path> </g> </g> </svg>