<svg xmlns="http://www.w3.org/2000/svg" xmlns:xlink="http://www.w3.org/1999/xlink" xmlns:serif="http://www.serif.com/" width="100%" height="100%" viewBox="0 0 1080 1080" xml:space="preserve" style="fill-rule:evenodd;clip-rule:evenodd;stroke-miterlimit:13;"> <g id="Shard-5" serif:id="Shard 5"> <g transform="matrix(1,0,0,1,-78.6022,-160.979)"> <path d="M1021.74,681.378L1021.74,673.414L1032.17,671.85L1031.82,671.942L1031.82,678.608L1028.99,681.275L1021.99,680.775L1021.74,681.378Z" style="fill:rgb(242,242,242);"></path> </g> <g transform="matrix(1,0,0,1,-78.6022,-160.979)"> <path d="M993.365,722.364C991.146,726.025 988.989,730.108 988.989,730.108L1001.82,721.275L1019.99,704.775C1019.99,704.775 1020.82,700.775 1022.49,698.442C1024.15,696.108 1028.99,692.442 1028.99,692.442L1027.32,686.608L1027.29,686.525C1027.29,686.525 1022.52,684.525 1020.07,685.303L1015.85,683.636L1015.3,685.465C1015.3,685.465 1011.72,687.411 1009.93,687.052L1007.57,688.383C1007.57,688.383 1006.7,689.715 1006.09,692.07C1005.47,694.425 1002.14,704.051 1001.02,705.689C999.892,707.327 999.329,708.607 999.073,709.478C998.817,710.348 993.492,722.278 993.492,722.278C993.492,722.278 993.41,722.325 993.365,722.364Z" style="fill:rgb(242,242,242);"></path> </g> <g transform="matrix(1,0,0,1,-78.6022,-160.979)"> <path d="M1019.35,687.951L1019.57,692.275C1019.57,692.275 1011.77,696.551 1011.77,696.551L1020.55,692.853L1020.55,692.551L1020.79,687.951L1019.35,687.951Z" style="fill:rgb(128,128,128);"></path> </g> <g transform="matrix(1,0,0,1,-78.6022,-160.979)"> <path d="M1026.07,688.351L1023.5,692.253C1023.51,692.247 1019.9,697.399 1019.9,697.399C1019.46,697.564 1017.74,698.212 1015.83,698.951C1012.93,700.076 1009.6,701.406 1009.6,701.406L1009.35,701.508L1009.24,701.748C1009.24,701.748 1008.27,703.682 1007.22,705.901C1005.97,708.569 1004.59,711.643 1004.37,712.129C1003.99,712.56 1002.09,714.718 999.986,717.149C996.899,720.713 993.369,724.851 993.369,724.851C993.369,724.851 997.229,721.02 1000.55,717.674C1003.09,715.12 1005.3,712.852 1005.3,712.852L1005.36,712.787L1005.4,712.707C1005.4,712.707 1007.1,709.408 1008.51,706.521C1009.37,704.769 1010.12,703.167 1010.39,702.586C1011.22,702.226 1013.9,701.051 1016.27,699.991C1018.43,699.02 1020.33,698.145 1020.33,698.145L1020.46,698.094L1020.53,697.983L1023.83,692.452C1023.83,692.449 1026.07,688.351 1026.07,688.351Z" style="fill:rgb(128,128,128);"></path> </g> <g transform="matrix(1,0,0,1,-78.6022,-160.979)"> <path d="M1015.3,685.465C1015.3,685.465 1011.72,687.411 1009.93,687.052L1007.57,688.383C1007.57,688.383 1006.7,689.715 1006.09,692.07C1005.47,694.425 1002.14,704.051 1001.02,705.689C999.892,707.327 999.329,708.607 999.073,709.478C998.817,710.348 993.492,722.278 993.492,722.278" style="fill:none;stroke:rgb(128,128,128);stroke-width:1.44px;"></path> </g> <g transform="matrix(1,0,0,1,-78.6022,-160.979)"> <path d="M1021.74,681.378L1021.74,673.414L1032.17,671.85" style="fill:none;stroke:rgb(128,128,128);stroke-width:1.44px;"></path> </g> <g transform="matrix(1,0,0,1,-78.6022,-160.979)"> <path d="M1027.29,686.525C1027.29,686.525 1022.52,684.525 1020.07,685.303L1015.85,683.636" style="fill:none;stroke:rgb(128,128,128);stroke-width:1.44px;"></path> </g> <g transform="matrix(1,0,0,1,-78.6022,-160.979)"> <path d="M1021.99,680.775L1028.99,681.275L1031.82,678.608L1031.82,671.942L1023.82,674.775L1021.99,680.775Z" style="fill:none;stroke:rgb(128,128,128);stroke-width:1.44px;"></path> </g> <g transform="matrix(1,0,0,1,-78.6022,-160.979)"> <path d="M1019.99,688.442L1015.82,683.608C1015.82,683.608 1015.65,688.442 1013.32,688.442C1010.99,688.442 1009.49,690.108 1009.49,690.108L1003.99,704.775C1003.99,704.775 998.989,714.608 996.322,717.942C993.655,721.275 988.989,730.108 988.989,730.108L1001.82,721.275L1019.99,704.775C1019.99,704.775 1020.82,700.775 1022.49,698.442C1024.15,696.108 1028.99,692.442 1028.99,692.442L1027.32,686.608C1027.32,686.608 1021.49,684.442 1019.99,688.442Z" style="fill:none;stroke:rgb(128,128,128);stroke-width:1.44px;"></path> </g> </g> </svg>