<svg xmlns="http://www.w3.org/2000/svg" xmlns:xlink="http://www.w3.org/1999/xlink" xmlns:serif="http://www.serif.com/" width="100%" height="100%" viewBox="0 0 1080 1080" xml:space="preserve" style="fill-rule:evenodd;clip-rule:evenodd;stroke-miterlimit:13;"> <g id="Shard-4" serif:id="Shard 4"> <g transform="matrix(1,0,0,1,-262.751,0)"> <path d="M888.469,431.634C888.469,431.634 896.469,436.434 899.069,440.034C899.069,440.034 922.869,436.434 929.269,438.234L924.669,434.634L901.069,426.634L888.469,431.634Z" style="fill:rgb(242,242,242);"></path> </g> <g transform="matrix(1,0,0,1,-262.751,0)"> <path d="M888.469,431.634C888.469,431.634 896.469,436.434 899.069,440.034C899.069,440.034 922.869,436.434 929.269,438.234L924.669,434.634L901.069,426.634L888.469,431.634Z" style="fill:none;stroke:rgb(128,128,128);stroke-width:1.44px;"></path> </g> <g transform="matrix(1,0,0,1,-262.751,0)"> <path d="M923.408,437.731L917.156,434.634L903.031,431.872L896.031,433.372L889.031,431.872" style="fill:none;stroke:rgb(128,128,128);stroke-width:1.44px;"></path> </g> </g> </svg>