<svg xmlns="http://www.w3.org/2000/svg" xmlns:xlink="http://www.w3.org/1999/xlink" xmlns:serif="http://www.serif.com/" width="100%" height="100%" viewBox="0 0 1080 1080" xml:space="preserve" style="fill-rule:evenodd;clip-rule:evenodd;stroke-miterlimit:13;"> <g id="Plate1"> <g transform="matrix(1,0,0,1,-262.751,0)"> <path d="M837.656,313.872C837.656,313.872 845.781,299.247 846.531,295.997C846.531,295.997 858.281,294.497 861.281,297.247C861.281,297.247 866.781,304.372 867.031,308.372L861.281,314.872L869.031,313.872C869.031,313.872 874.781,319.122 871.906,327.747L871.804,328.003L869.281,331.997C869.281,331.997 856.656,331.872 852.531,333.497C852.531,333.497 840.656,319.997 838.156,317.622L837.491,313.911C837.491,313.911 837.596,313.931 837.656,313.872Z" style="fill:rgb(242,242,242);"></path> </g> <g transform="matrix(1,0,0,1,-262.751,0)"> <path d="M871.804,328.003L869.281,331.997C869.281,331.997 856.656,331.872 852.531,333.497C852.531,333.497 840.656,319.997 838.156,317.622L837.491,313.911" style="fill:none;stroke:rgb(128,128,128);stroke-width:1.44px;"></path> </g> <g transform="matrix(1,0,0,1,-262.751,0)"> <path d="M871.906,327.747C871.906,327.747 857.156,327.372 853.156,329.372C853.156,329.372 841.781,316.747 837.656,313.872C837.656,313.872 845.781,299.247 846.531,295.997C846.531,295.997 858.281,294.497 861.281,297.247C861.281,297.247 866.781,304.372 867.031,308.372L861.281,314.872L869.031,313.872C869.031,313.872 874.781,319.122 871.906,327.747Z" style="fill:none;stroke:rgb(128,128,128);stroke-width:1.44px;"></path> </g> <g transform="matrix(1,0,0,1,-262.751,0)"> <path d="M844.923,312.917C844.923,312.917 846.515,312.069 848.951,311.039C849.775,310.691 850.689,310.329 851.667,309.948C852.252,309.721 852.856,309.488 853.474,309.251C853.743,309.148 854.011,309.037 854.283,308.928C854.906,308.679 855.537,308.434 856.187,308.209C856.843,307.982 857.502,307.77 858.178,307.585C859.203,307.304 860.226,307.078 861.281,306.961C860.208,306.842 859.14,306.819 858.062,306.891C857.335,306.94 856.622,307.032 855.913,307.159C855.192,307.287 854.487,307.448 853.802,307.648C853.333,307.784 852.877,307.939 852.435,308.11C852.094,308.242 851.763,308.386 851.443,308.538C850.644,308.916 849.903,309.321 849.228,309.73C848.16,310.378 847.274,311.019 846.572,311.554C845.511,312.362 844.923,312.917 844.923,312.917Z" style="fill:rgb(128,128,128);"></path> </g> <g transform="matrix(1,0,0,1,-262.751,0)"> <path d="M850.902,303.067C850.902,303.067 851.331,304.139 851.852,305.748C852.027,306.291 852.203,306.884 852.4,307.517C852.517,307.894 852.637,308.282 852.771,308.674C852.887,309.016 853.024,309.352 853.144,309.7C853.223,309.931 853.305,310.158 853.381,310.392C853.517,310.813 853.64,311.225 853.741,311.656C853.899,312.324 854.017,312.97 854.04,313.65C854.255,312.98 854.385,312.311 854.442,311.603C854.481,311.13 854.477,310.666 854.448,310.193C854.418,309.718 854.359,309.253 854.266,308.794C854.204,308.485 854.123,308.182 854.026,307.89C853.953,307.665 853.867,307.448 853.774,307.237C853.542,306.716 853.287,306.236 853.018,305.798C852.597,305.109 852.173,304.552 851.813,304.103C851.272,303.429 850.902,303.067 850.902,303.067Z" style="fill:rgb(128,128,128);"></path> </g> </g> </svg>