<svg xmlns="http://www.w3.org/2000/svg" xmlns:xlink="http://www.w3.org/1999/xlink" xmlns:serif="http://www.serif.com/" width="100%" height="100%" viewBox="0 0 1080 1080" xml:space="preserve" style="fill-rule:evenodd;clip-rule:evenodd;stroke-miterlimit:13;"> <g id="Plate-2" serif:id="Plate 2"> <g transform="matrix(1,0,0,1,-128.237,-169.605)"> <path d="M860.406,373.372L856.531,367.872L852.281,368.872L852.281,373.372L856.531,374.622L860.406,373.372Z" style="fill:rgb(242,242,242);"></path> </g> <g transform="matrix(1,0,0,1,-320.565,311.554)"> <path d="M713.418,668.838C713.418,668.838 716.793,665.088 718.293,665.838C719.793,666.588 725.743,669.563 725.743,669.563L721.543,672.088C721.543,672.088 714.793,673.588 713.418,668.838Z" style="fill:rgb(242,242,242);"></path> </g> <g transform="matrix(1,0,0,1,-502.572,-200.178)"> <path d="M703.918,739.463C705.424,743.545 707.668,743.838 710.293,744.588C713.043,743.963 717.168,739.713 715.918,738.213C714.668,736.713 708.293,732.963 703.918,739.463Z" style="fill:rgb(242,242,242);"></path> </g> <g transform="matrix(1,0,0,1,-128.237,-169.605)"> <path d="M860.406,373.372L856.531,367.872L852.281,368.872L852.281,373.372L856.531,374.622L860.406,373.372Z" style="fill:none;stroke:rgb(128,128,128);stroke-width:1.44px;"></path> </g> <g transform="matrix(1,0,0,1,-320.565,311.554)"> <path d="M713.418,668.838C713.418,668.838 716.793,665.088 718.293,665.838C719.793,666.588 725.743,669.563 725.743,669.563L721.543,672.088C721.543,672.088 714.793,673.588 713.418,668.838Z" style="fill:none;stroke:rgb(128,128,128);stroke-width:1.44px;"></path> </g> <g transform="matrix(1,0,0,1,-502.572,-200.178)"> <path d="M703.918,739.463C705.424,743.545 707.668,743.838 710.293,744.588C713.043,743.963 717.168,739.713 715.918,738.213C714.668,736.713 708.293,732.963 703.918,739.463Z" style="fill:none;stroke:rgb(128,128,128);stroke-width:1.44px;"></path> </g> </g> </svg>