<svg xmlns="http://www.w3.org/2000/svg" xmlns:xlink="http://www.w3.org/1999/xlink" xmlns:serif="http://www.serif.com/" width="100%" height="100%" viewBox="0 0 1080 1080" xml:space="preserve" style="fill-rule:evenodd;clip-rule:evenodd;stroke-miterlimit:13;"> <g transform="matrix(1,0,0,1,-262.751,0)"> <path d="M1029.87,876.618L1028.87,874.318L1019.97,867.818L1016.27,873.218L1018.27,875.218C1018.27,875.218 1027.97,876.218 1029.87,876.618Z" style="fill:rgb(242,242,242);"></path> </g> <g transform="matrix(1,0,0,1,-262.751,0)"> <path d="M1020.97,854.518C1020.97,854.518 1027.97,852.618 1027.97,850.318C1027.97,848.018 1029.57,846.318 1027.97,846.018C1026.37,845.718 1024.57,848.318 1022.77,848.018C1020.97,847.718 1019.17,850.618 1020.97,854.518Z" style="fill:rgb(242,242,242);"></path> </g> <g transform="matrix(1,0,0,1,-262.751,0)"> <path d="M1034.54,859.084L1039.04,848.751C1039.04,848.751 1051.37,842.584 1054.54,843.584C1057.7,844.584 1067.54,856.251 1070.87,856.584L1070.87,859.084C1070.87,859.084 1062.87,865.084 1060.04,868.584C1057.2,872.084 1055.54,873.751 1051.04,872.084C1046.54,870.418 1033.87,861.584 1034.54,859.084Z" style="fill:rgb(242,242,242);"></path> </g> <g transform="matrix(1,0,0,1,-262.751,0)"> <path d="M1029.87,876.618L1028.87,874.318L1019.97,867.818L1016.27,873.218L1018.27,875.218C1018.27,875.218 1027.97,876.218 1029.87,876.618Z" style="fill:none;stroke:rgb(128,128,128);stroke-width:1.44px;"></path> </g> <g transform="matrix(1,0,0,1,-262.751,0)"> <path d="M1020.97,854.518C1020.97,854.518 1027.97,852.618 1027.97,850.318C1027.97,848.018 1029.57,846.318 1027.97,846.018C1026.37,845.718 1024.57,848.318 1022.77,848.018C1020.97,847.718 1019.17,850.618 1020.97,854.518Z" style="fill:none;stroke:rgb(128,128,128);stroke-width:1.44px;"></path> </g> <g transform="matrix(1,0,0,1,-262.751,0)"> <path d="M1038.84,849.343L1049.54,859.751L1039.9,848.359L1038.84,849.343Z" style="fill:rgb(128,128,128);"></path> </g> <g transform="matrix(1,0,0,1,-262.751,0)"> <path d="M1055.88,872.343C1055.88,872.343 1054.99,870.299 1053.78,867.757C1053.09,866.312 1052.31,864.721 1051.54,863.251C1052.09,864.813 1052.64,866.495 1053.11,868.019C1053.93,870.689 1054.52,872.826 1054.52,872.826L1055.88,872.343Z" style="fill:rgb(128,128,128);"></path> </g> <g transform="matrix(1,0,0,1,-262.751,0)"> <path d="M1035.55,860.783C1035.55,860.783 1037.28,860.242 1040.87,860.52C1042.97,860.683 1045.68,861.117 1049.04,862.084C1045.76,860.76 1043.08,860.045 1040.98,859.661C1037.12,858.957 1035.19,859.386 1035.19,859.386L1035.55,860.783Z" style="fill:rgb(128,128,128);"></path> </g> <g transform="matrix(1,0,0,1,-262.751,0)"> <path d="M1070.73,856.363C1070.73,856.363 1069.14,856.364 1067.17,856.184C1066.04,856.082 1064.79,855.924 1063.64,855.671C1062.28,855.37 1060.79,855.837 1059.39,856.671C1057.41,857.847 1055.6,859.702 1054.54,860.751C1055.67,859.804 1057.59,858.12 1059.63,857.122C1060.92,856.491 1062.25,856.136 1063.43,856.498C1064.59,856.854 1065.86,857.123 1067.02,857.323C1069.03,857.673 1070.67,857.806 1070.67,857.806L1070.73,856.363Z" style="fill:rgb(128,128,128);"></path> </g> <g transform="matrix(1,0,0,1,-262.751,0)"> <path d="M1034.54,859.084L1039.04,848.751C1039.04,848.751 1051.37,842.584 1054.54,843.584C1057.7,844.584 1067.54,856.251 1070.87,856.584L1070.87,859.084C1070.87,859.084 1062.87,865.084 1060.04,868.584C1057.2,872.084 1055.54,873.751 1051.04,872.084C1046.54,870.418 1033.87,861.584 1034.54,859.084Z" style="fill:none;stroke:rgb(128,128,128);stroke-width:1.44px;"></path> </g> </svg>