<svg xmlns="http://www.w3.org/2000/svg" xmlns:xlink="http://www.w3.org/1999/xlink" xmlns:serif="http://www.serif.com/" width="100%" height="100%" viewBox="0 0 1080 1080" xml:space="preserve" style="fill-rule:evenodd;clip-rule:evenodd;stroke-linecap:round;stroke-miterlimit:13;"> <g id="Body"> <g id="Plate-3" serif:id="Plate 3"> <g transform="matrix(1,0,0,1,-262.751,0)"> <path d="M506.783,472.298L508.143,455.498L518.383,462.298C518.383,462.298 518.506,462.284 518.666,462.321C518.666,462.321 524.666,474.321 527.666,474.321C527.666,474.321 521.666,468.988 521.166,462.321L521.099,462.368L542.833,457.988L550.833,472.654L566.833,487.988L566.833,490.888L566.579,491.308L562.833,499.321C562.833,499.321 530.333,498.488 524.333,493.821C524.333,493.821 521.666,484.988 518.666,480.821C515.666,476.654 506.999,472.321 506.999,472.321L506.783,472.298Z" style="fill:rgb(242,242,242);"></path> </g> <g transform="matrix(1,0,0,1,-262.751,0)"> <path d="M546.956,498.717C546.956,498.717 549.436,497.834 552.165,496.81C552.903,496.533 553.659,496.248 554.385,495.956C557,494.901 559.263,493.898 559.263,493.898C559.263,493.898 556.864,494.508 554.156,495.296C553.405,495.515 552.635,495.759 551.884,495.997C549.105,496.879 546.61,497.718 546.61,497.718C546.334,497.814 546.188,498.115 546.283,498.391C546.378,498.666 546.68,498.813 546.956,498.717Z" style="fill:rgb(128,128,128);"></path> </g> <g transform="matrix(1,0,0,1,-262.751,0)"> <path d="M541.466,481.087C541.466,481.087 538.272,482.533 535.855,484.892C534.755,485.965 533.816,487.221 533.423,488.618C533.935,487.292 534.963,486.153 536.136,485.208C538.668,483.168 541.859,482.069 541.859,482.069C542.13,481.96 542.262,481.652 542.153,481.381C542.045,481.111 541.737,480.979 541.466,481.087Z" style="fill:rgb(128,128,128);"></path> </g> <g transform="matrix(1,0,0,1,-262.751,0)"> <path d="M546.77,473.749C546.77,473.749 545.17,477.183 542.607,479.667C541.467,480.772 540.14,481.698 538.663,481.991C537.815,482.161 536.829,482.301 535.779,482.426C533.486,482.698 530.885,482.828 528.716,482.994C528.033,483.047 527.399,483.114 526.825,483.178C526.286,483.238 525.812,483.302 525.405,483.36C524.508,483.486 523.983,483.578 523.983,483.578C523.983,483.578 524.533,483.674 525.47,483.779C525.898,483.826 526.396,483.871 526.96,483.91C527.335,483.936 527.732,483.96 528.153,483.971C528.718,483.984 529.319,483.975 529.941,483.963C532.954,483.905 536.468,483.676 538.902,483.245C540.622,482.93 542.2,481.909 543.541,480.644C546.319,478.022 548.075,474.367 548.075,474.367C548.245,474.007 548.092,473.576 547.732,473.405C547.372,473.235 546.941,473.389 546.77,473.749Z" style="fill:rgb(128,128,128);"></path> </g> <g transform="matrix(1,0,0,1,-262.751,0)"> <path d="M547.663,474.138L550.943,472.858" style="fill:none;stroke:rgb(128,128,128);stroke-width:1.44px;"></path> </g> <g transform="matrix(1,0,0,1,-262.751,0)"> <path d="M506.783,472.298L508.143,455.498L518.383,462.298" style="fill:none;stroke:rgb(128,128,128);stroke-width:1.44px;"></path> </g> <g transform="matrix(1,0,0,1,-262.751,0)"> <path d="M541.833,460.821L542.846,458.448" style="fill:none;stroke:rgb(128,128,128);stroke-width:1.44px;stroke-linecap:butt;"></path> </g> <g transform="matrix(1,0,0,1,-262.751,0)"> <path d="M566.833,490.888L566.833,487.988L550.833,472.654L542.833,457.988L521.099,462.368" style="fill:none;stroke:rgb(128,128,128);stroke-width:1.44px;"></path> </g> <g transform="matrix(1,0,0,1,-262.751,0)"> <path d="M527.666,474.321C527.666,474.321 521.666,468.988 521.166,462.321C521.166,462.321 539.666,459.321 541.499,460.821C543.333,462.321 547.833,474.321 547.833,474.321L566.579,491.308L562.833,499.321C562.833,499.321 530.333,498.488 524.333,493.821C524.333,493.821 521.666,484.988 518.666,480.821C515.666,476.654 506.999,472.321 506.999,472.321C506.999,472.321 507.833,462.154 509.833,458.988C509.833,458.988 516.166,460.654 518.666,462.321C518.666,462.321 524.666,474.321 527.666,474.321Z" style="fill:none;stroke:rgb(128,128,128);stroke-width:1.44px;stroke-linecap:butt;"></path> </g> <g transform="matrix(1,0,0,1,-262.751,0)"> <path d="M561.535,486.531C561.535,486.531 558.1,488.02 554.317,489.714C553.294,490.171 552.246,490.641 551.238,491.113C547.614,492.809 544.463,494.378 544.463,494.378C544.463,494.378 547.777,493.193 551.511,491.755C552.55,491.355 553.615,490.925 554.653,490.504C558.496,488.95 561.95,487.504 561.95,487.504C562.218,487.39 562.343,487.079 562.229,486.811C562.115,486.542 561.804,486.417 561.535,486.531Z" style="fill:rgb(128,128,128);"></path> </g> </g> </g> </svg>