<svg xmlns="http://www.w3.org/2000/svg" xmlns:xlink="http://www.w3.org/1999/xlink" xmlns:serif="http://www.serif.com/" width="100%" height="100%" viewBox="0 0 1080 1080" xml:space="preserve" style="fill-rule:evenodd;clip-rule:evenodd;stroke-linecap:round;stroke-linejoin:round;stroke-miterlimit:1.5;"> <g transform="matrix(-0.552444,0,0,0.552444,826.196,386.86)"> <g transform="matrix(0.992466,-0.122521,0.122521,0.992466,-62.1176,61.5596)"> <path d="M562.413,602.066C562.413,602.066 559.538,596.816 556.163,600.316C556.163,600.316 557.288,595.816 554.038,593.816C550.788,591.816 542.488,595.528 542.488,595.528C542.488,595.528 532.663,599.67 532.83,595.17C532.996,590.67 537.163,587.17 530.663,584.17C524.163,581.17 521.33,586.004 516.663,584.17C511.996,582.337 510.14,576.937 516.663,572.252C523.186,567.566 523.586,567.279 530.663,562.195C537.741,557.111 545.663,553.004 536.163,549.337C526.663,545.67 519.163,538.837 519.163,538.837C519.163,538.837 531.659,503.393 522.83,496.115C514,488.837 499.663,485.67 499.663,485.67C499.663,485.67 501.83,475.566 497.83,468.941C493.83,462.316 477.83,452.337 472.163,439.837C466.496,427.337 427.996,371.17 423.83,328.837C419.663,286.504 406.996,261.504 403.496,254.67C399.996,247.837 400.496,227.67 399.996,223.67C399.496,219.67 391.663,218.67 390.663,223.67C389.663,228.67 386.663,235.17 382.83,239.837C378.996,244.504 375.163,248.67 378.996,260.504C382.83,272.337 384.33,283.17 382.83,292.337C381.33,301.504 378.996,307.004 382.83,310.004C386.663,313.004 400.163,313.504 401.83,327.337C403.496,341.17 412.496,385.17 415.496,408.504C418.496,431.837 429.996,445.566 440.496,457.941C450.996,470.316 455.579,475.717 455.579,475.717C455.579,475.717 433.33,464.337 421.83,460.17C410.33,456.004 368.663,424.17 357.163,416.337C345.663,408.504 325.83,389.337 318.663,383.67C311.496,378.004 302.163,369.17 302.496,363.337C302.83,357.504 306.496,354.004 302.163,353.337C297.83,352.67 292.163,364.004 292.996,371.504C293.83,379.004 304.663,392.504 308.663,402.67C312.663,412.837 310.663,429.504 315.996,434.67C321.33,439.837 345.83,433.004 353.83,438.337C361.83,443.67 382.496,467.596 392.163,475.717C401.83,483.837 420.663,499.837 431.33,503.837C441.996,507.837 454.163,507.837 454.163,507.837C454.163,507.837 445.663,532.108 440.496,541.67C440.496,541.67 434.33,552.337 427.996,552.337C421.663,552.337 418.33,558.004 413.996,549.337C409.663,540.67 401.496,542.67 392.163,541.67C382.83,540.67 378.33,552.004 382.83,555.004C387.33,558.004 392.996,560.72 385.996,562.195C378.996,563.67 376.163,572.252 370.163,572.252C364.163,572.252 341.196,585.837 348.863,591.17C356.53,596.504 369.563,594.545 375.563,600.316C381.563,606.087 381.573,610.15 382.83,613.877C384.086,617.604 398.419,615.198 395.996,626.337C393.574,637.475 377.83,656.837 390.663,670.004C403.496,683.17 404.163,685.522 413.996,695.406C423.83,705.291 426.663,705.337 428.996,714.67C431.33,724.004 435.163,726.337 442.83,730.504C450.496,734.67 450.787,734.828 457.601,738.531C464.414,742.234 463.345,745.316 469.337,744.91C475.33,744.504 483.83,752.837 490.83,756.67C497.83,760.504 491.996,756.004 501.33,760.504C510.663,765.004 510.496,764.837 516.663,762.67C522.83,760.504 531.621,766.837 539.33,767.004C547.038,767.17 551.223,760.67 559.182,759.17C567.14,757.67 579.429,748.584 584.238,753.377C584.238,753.377 615.289,799.576 660.909,775.016C686.762,761.098 673.146,711.916 658.505,705.291C644.126,698.784 637.858,703.955 636.523,699.681C635.187,695.406 630.617,688.559 627.825,687.847C625.032,687.134 622.788,694.038 619.768,695.406C610.333,699.681 594.405,693.138 593.604,697.412C592.802,701.687 594.642,711.619 590.368,714.67C582.73,720.123 569.812,721.319 567.14,717.312C564.469,713.305 540.63,690.487 540.63,690.487C538.43,681.887 533.23,675.559 522.23,673.025C511.23,670.492 506.23,682.087 506.824,677.556C507.419,673.025 504.23,676.887 499.079,675.559C493.928,674.23 498.43,673.287 497.63,670.487C496.83,667.687 497.63,664.487 493.23,663.087C488.83,661.687 501.83,653.487 509.54,652.605C517.25,651.723 516.03,645.487 522.23,638.687C528.43,631.887 522.23,631.287 527.23,624.887C532.23,618.487 551.163,617.39 558.03,616.087C569.675,613.877 562.413,602.066 562.413,602.066Z" style="fill:rgb(77,77,77);"></path> </g> <g transform="matrix(-0.897899,-0.440202,-0.440202,0.897899,1375.39,305.777)"> <path d="M567.14,717.312C564.469,713.305 583.187,651.989 581.722,627.582C580.442,606.252 590.649,598.966 589.046,572.252C587.444,545.537 592.252,539.393 599.198,530.042C606.144,520.692 605.877,506.331 608.014,501.223C610.151,496.115 610.418,491.007 605.877,496.115C601.335,501.223 599.872,514 594.924,514C589.976,514 576.223,499.054 577.025,491.841C577.826,484.628 581.371,474.098 579.198,472.283L577.025,479.066C577.025,479.066 574.964,473.076 575.663,470.316C577.025,464.941 575.663,462.379 574.301,462.316C574.301,462.316 574.413,466.441 571.913,468.941C571.913,468.941 569.413,455.566 562.413,457.941C562.413,457.941 563.163,459.691 563.913,462.316C564.663,464.941 565.806,468.941 565.806,468.941C565.806,468.941 560.071,463.906 559.182,465.757C558.767,466.618 560.913,469.941 562.413,473.566C563.913,477.191 568.475,483.941 567.14,490.816C565.806,497.691 571.913,525.066 571.913,533.816C571.913,542.566 571.436,554.066 569.288,567.566C567.14,581.066 562.413,602.066 562.413,602.066C562.413,602.066 559.066,611.301 558.03,616.087C556.499,623.157 555.43,634.087 553.23,644.487C551.03,654.887 544.581,677.907 540.63,690.487C537.483,700.506 524.242,714.376 529.521,719.969C537.526,728.448 567.972,718.559 567.14,717.312Z" style="fill:rgb(77,77,77);"></path> </g> <g transform="matrix(-0.906491,-0.422225,0.422225,-0.906491,640.503,1524.39)"> <path d="M599.198,530.042C592.252,539.393 571.913,542.566 571.913,533.816C571.913,525.066 565.806,497.691 567.14,490.816C568.475,483.941 563.913,477.191 562.413,473.566C560.913,469.941 558.767,466.618 559.182,465.757C560.071,463.906 565.806,468.941 565.806,468.941C565.806,468.941 564.663,464.941 563.913,462.316C563.163,459.691 562.413,457.941 562.413,457.941C569.413,455.566 571.913,468.941 571.913,468.941C574.413,466.441 574.301,462.316 574.301,462.316C575.663,462.379 577.025,464.941 575.663,470.316C574.964,473.076 577.025,479.066 577.025,479.066L579.198,472.283C581.371,474.098 577.826,484.628 577.025,491.841C576.223,499.054 589.976,514 594.924,514C599.872,514 601.335,501.223 605.877,496.115C610.418,491.007 610.151,496.115 608.014,501.223C605.877,506.331 606.144,520.692 599.198,530.042Z" style="fill:rgb(77,77,77);"></path> </g> <g transform="matrix(-0.432302,-0.901729,0.901729,-0.432302,109.886,1547.62)"> <path d="M589.046,572.252C590.649,598.966 580.231,639.573 580.231,639.573C579.429,670.829 564.469,713.305 567.14,717.312C569.812,721.319 567.14,757.67 559.182,759.17C551.223,760.67 547.038,767.17 539.33,767.004C531.621,766.837 522.83,760.504 516.663,762.67C510.496,764.837 524.135,719.223 540.63,690.487C548.544,676.699 551.03,654.887 553.23,644.487C555.43,634.087 556.499,623.157 558.03,616.087C559.066,611.301 562.413,602.066 562.413,602.066C562.413,602.066 567.14,581.066 569.288,567.566C569.288,567.566 577.398,544.078 566.756,531.249C560.9,524.189 591.076,516.777 591.076,516.777L589.046,572.252Z" style="fill:rgb(77,77,77);"></path> </g> </g> <g transform="matrix(0.552444,0,0,0.552444,273.261,386.86)"> <path d="M318.675,733.509C318.675,733.509 312.697,736.028 307.547,740.548C304.969,742.811 302.55,744.772 301.235,747.407C298.997,751.89 297.906,756.681 305.437,760.568L305.499,760.502C303.911,757.793 303.692,755.897 304.151,754.227C304.439,753.177 305.538,752.929 306.543,752.332C308.175,751.362 310.228,751.384 312.415,751.06C317.485,750.309 322.261,751.252 322.261,751.252L318.675,733.509Z" style="fill:rgb(77,77,77);"></path> <path d="M318.294,756.05C318.294,756.05 327.704,771.168 342.899,777.083C352.175,780.694 363.493,781.506 376.013,773.719C390.468,764.731 402.565,748.775 409.009,731.077C415.606,712.962 416.476,693.264 408.577,678.084C402.676,666.746 401.202,648.216 402.316,628.296C403.875,600.414 410.602,569.948 418.412,551.781L418.33,551.743C409.325,569.565 400.691,599.861 397.363,627.863C394.831,649.161 395.546,669.113 401.109,681.676C407.021,695.029 404.954,711.742 398.362,726.816C392.021,741.317 381.27,754.268 368.672,761.041C361.111,765.106 354.575,764.456 349.317,762.018C339.437,757.435 333.892,746.866 333.892,746.866L318.294,756.05Z" style="fill:rgb(77,77,77);"></path> <path d="M311.223,755.076C311.223,755.076 283.498,735.104 301.026,721.647C301.18,721.528 301.174,722.565 301.57,722.478C304.129,721.915 308.635,727.302 308.635,727.302C308.635,727.302 306.661,723.243 306.274,719.64C304.134,699.751 314.837,686.711 315.69,673.913C316.249,665.531 314.901,657.077 306.324,648.173C300.756,642.392 295.294,638.324 289.684,635.349C274.081,627.075 259.304,627.422 249.881,615.481L249.805,615.53C256.471,629.129 270.862,631.974 284.301,643.315C288.309,646.696 291.993,650.946 295.47,656.588C298.861,662.089 298.836,666.524 297.619,670.742C296.123,675.928 292.461,680.522 289.086,686.038C283.479,695.202 278.658,705.732 277.162,719.64C274.896,740.704 283.781,749.055 289.643,753.341C302.574,762.796 321.853,751.677 321.853,751.677L311.223,755.076Z" style="fill:rgb(77,77,77);"></path> <path d="M358.237,698.928C355.831,691.335 357.875,686.35 359.427,680.991C361.549,673.663 363.533,666.109 362.053,656.405C361.06,649.893 358.941,642.266 353.784,633.122C344.082,615.921 337.926,608.627 333.998,598.223C330.813,589.788 329.036,579.45 327.766,559.88C325.691,527.924 334.444,503.578 328.992,481.33C326.554,471.381 321.46,461.866 311.256,452.35L311.19,452.412C319.748,462.711 323.582,472.328 324.681,482.098C327.244,504.881 315.246,527.895 313.17,559.88C311.724,582.153 312.52,594.071 314.872,604.059C317.616,615.706 322.943,624.436 330.902,644.139C333.296,650.066 334.084,654.814 334.171,658.824C334.321,665.694 331.053,670.084 328.937,674.959C325.051,683.913 322.731,693.296 325.199,707.082L358.237,698.928Z" style="fill:rgb(77,77,77);"></path> <path d="M329.005,706.249C324.72,696.242 325.371,687.298 326.57,678.785C327.672,670.951 329.14,663.51 328.628,656.099C328.283,651.112 327.26,646.157 324.687,641.17C321.314,634.63 317.313,628.691 312.834,623.019C302.959,610.511 291.133,599.451 280.57,586.105L280.496,586.156C289.181,600.663 299.424,613.07 307.528,626.672C310.967,632.444 313.939,638.402 316.248,644.841C319.183,653.023 317.372,660.453 315.244,668.18C312.798,677.058 309.867,686.175 309.714,696.499C309.639,701.49 310.369,706.677 311.931,712.262L329.005,706.249Z" style="fill:rgb(77,77,77);"></path> <path d="M335.097,744.514C335.397,743.709 335.85,743.208 335.85,743.208L286.596,736.51C286.596,736.51 285.336,772.335 308.867,782.568C313.092,784.405 317.654,786.544 323.38,786.626C335.034,786.792 353.88,782.93 380.484,760.519C402.934,741.608 412.175,726.355 413.775,712.537C415.237,699.901 411.432,688.841 404.534,678.551C395.618,665.251 382.886,653.622 378.637,640.497L378.548,640.514C380.036,658.922 397.566,678.398 398.12,698.878C398.463,711.532 389.612,722.601 363.979,735.491C352.642,741.193 341.677,743.55 335.097,744.514Z" style="fill:rgb(77,77,77);"></path> <path d="M332.74,735.155C332.74,735.155 328.436,723.962 326.474,708.574C325.393,700.096 324.426,690.643 325.498,681.049C327.003,667.563 326.355,657.312 323.314,648.471C318.418,634.237 309.193,624.373 298.823,611.747C294.297,606.236 294.427,602.171 295.643,597.457C297.209,591.39 299.7,584.929 298.645,575.916C298.066,570.97 296.526,565.368 293.01,558.614L292.926,558.647C297.71,577.418 291.674,585.864 287.501,593.635C285.615,597.147 284.34,600.536 283.817,604.296C283.215,608.626 284.191,613.27 287.112,619.264C292.204,629.708 297.357,638.244 299.731,648.242C301.481,655.61 300.382,663.539 296.507,674.315C292.313,685.975 290.528,698.03 289.354,708.937C287.188,729.057 289.265,744.563 289.265,744.563L332.74,735.155Z" style="fill:rgb(77,77,77);"></path> <path d="M315.336,724.435C310.364,722.235 303.109,717.87 296.686,709.748C292.097,703.947 287.799,696.599 284.885,687.06C280.887,673.976 278.78,666.424 274.543,661.211C270.108,655.754 263.545,652.774 249.858,649.202L249.828,649.287C261.85,654.617 267.628,658.05 270.869,663.728C273.953,669.129 274.525,676.392 276.181,688.95C277.698,700.452 281.285,709.686 285.438,717.221C292.045,729.207 300.666,736.376 306.668,740.326L315.336,724.435Z" style="fill:rgb(77,77,77);"></path> <path d="M317.343,748.909L310.414,734.188C310.414,734.188 310.511,734.539 310.345,734.712C309.912,735.163 309.57,735.963 308.69,736.457C305.753,738.107 301.311,739.804 293.978,739.077C287.447,738.43 279.56,736.586 269.242,732.342L269.194,732.419C283.929,745.619 294.954,749.874 302.986,751.365C308.238,752.341 312.201,751.485 315.344,750.762C322.159,749.195 324.691,745.142 324.691,745.142L317.343,748.909Z" style="fill:rgb(77,77,77);"></path> <path d="M379.376,725.402C384.088,713.379 394.903,698.088 399.179,681.005C401.986,669.786 402.368,657.898 397.103,645.638C393.172,636.485 388.686,631.225 383.58,625.867C379.382,621.461 374.773,616.986 369.929,609.452C367.167,605.156 364.311,599.907 361.401,593.132C355.474,579.33 351.918,567.678 349.926,557.193C347.251,543.11 347.357,531.216 348.197,519.28L348.108,519.27C346.294,531.242 345.265,543.231 346.807,557.655C347.972,568.546 350.613,580.763 355.51,595.379C358.003,602.822 360.584,608.634 363.138,613.433C371.993,630.075 380.856,633.401 386.332,649.747C389.595,659.484 388.462,668.577 385.598,677.005C380.12,693.125 368.305,706.899 362.809,718.109L379.376,725.402Z" style="fill:rgb(77,77,77);"></path> <path d="M336.997,703.922C336.862,692.492 339.751,685.385 341.595,679.042C343.009,674.176 344.037,669.74 343.383,664.742C342.722,659.693 340.747,654.007 335.488,646.891C327.114,635.561 322.526,630.978 319.44,624.885C316.625,619.327 315.099,612.679 313.04,598.627L312.95,598.633C312.762,613.368 313.347,620.418 315.313,626.576C317.449,633.268 321.281,638.712 327.909,651.598C330.861,657.339 331.838,661.605 331.722,665.319C331.58,669.835 329.346,673.299 327.168,677.645C324.005,683.955 320.64,691.391 318.939,702.675L336.997,703.922Z" style="fill:rgb(77,77,77);"></path> <path d="M320.672,727.587C315.434,720.473 311.684,713.856 308.452,706.89C303.505,696.23 299.609,685.165 293.247,671.547C285.614,655.209 289.046,646.871 286.693,635.626C285.766,631.195 284.041,626.371 280.463,620.495L280.382,620.536C282.98,626.69 283.988,631.562 284.233,635.95C284.91,648.056 280.179,656.194 285.509,674.464C290.535,691.692 292.712,704.846 297.197,718.27C299.265,724.459 301.871,730.578 305.318,737.174L320.672,727.587Z" style="fill:rgb(77,77,77);"></path> <path d="M379.89,703.299C378.467,686.21 374.822,680.119 373.668,671.435C373.047,666.762 373.2,661.333 375.256,652.373C377.148,644.129 384.89,634.274 385.787,620.724C386.218,614.219 385.199,606.953 381.135,598.614L381.051,598.647C383.592,607.125 383.538,614.121 382.119,620.176C379.024,633.379 369.647,641.75 366.423,649.556C362.17,659.851 361.075,666.353 360.88,672.062C360.592,680.489 363.159,686.85 361.789,703.299L379.89,703.299Z" style="fill:rgb(77,77,77);"></path> <path d="M348.438,766.831C348.438,766.831 355.903,765.324 373.58,768.135C384.556,769.881 398.694,772.828 416.76,778.306C450.373,788.498 467.632,802.003 483.324,805.839C493.195,808.252 502.312,807.314 514.022,799.295L513.978,799.216C502.078,804.453 493.718,804.15 485.244,800.294C470.334,793.509 455.719,776.753 424.175,760.204C406.206,750.777 391.861,744.843 380.625,740.786C356.554,732.095 345.499,732.929 345.499,732.929L348.438,766.831Z" style="fill:rgb(77,77,77);"></path> <path d="M352.546,758.733C359.986,759.75 365.196,760.01 369.182,759.769C374.847,759.426 378.209,758.394 381.571,757.237C385.674,755.823 389.785,754.473 402.359,756.271C408.549,757.157 415.155,755.461 421.575,750.97C430.25,744.902 438.969,734 446.133,720.986C460.97,694.036 469.713,658.641 459.881,644.856L459.805,644.905C466.798,657.09 459.207,683.291 446.263,705.998C438.27,720.02 428.227,732.613 418.352,739.411C413.617,742.672 409.033,744.435 404.86,743.405C397.566,741.605 392.484,741.009 388.591,740.893C377.257,740.553 377.707,746.183 355.89,740.943L352.546,758.733Z" style="fill:rgb(77,77,77);"></path> <path d="M334.907,768.58C334.907,768.58 346.786,777.151 363.895,775.329C371.516,774.517 380.43,772.855 389.309,766.479C400.508,758.437 405.734,753.432 415.412,747.821C420.202,745.044 425.892,742.031 434.057,738.438C439.246,736.154 443.86,732.889 446.995,727.576C451.028,720.742 453.654,711.218 454.018,700.001C454.982,670.308 444.138,629.827 438.008,620.494L437.928,620.536C440.917,628.053 443.135,652.672 441.227,676.385C440.302,687.886 438.219,698.899 434.762,707.425C432.875,712.077 430.53,715.55 426.911,716.323C416.994,718.442 409.969,720.5 403.996,722.488C392.475,726.323 385.767,730.376 372.093,736.461C369.613,737.565 367.233,737.34 365.183,737.369C361.748,737.417 359.632,735.004 358.483,734.238C337.446,720.201 346.968,772.404 346.968,772.404L334.907,768.58Z" style="fill:rgb(77,77,77);"></path> <path d="M328.452,699.816C331.403,677.768 336.328,672.054 337.224,662.283C337.656,657.566 337.426,652.023 335.632,643.83C333.607,634.582 329.891,627.835 325.94,621.634C322.175,615.724 318.207,610.445 316.403,603.204C315.217,598.442 314.898,592.88 316.123,585.767C319.459,566.406 324.501,553.857 327.338,541.877C328.846,535.507 329.748,529.333 329.423,522.401L329.332,522.401C329.011,529.242 327.575,535.23 325.49,541.344C321.474,553.118 315.146,565.232 309.867,584.369C307.611,592.55 307.43,599.102 308.267,604.81C310.435,619.586 321.013,627.998 323.123,645.931C323.882,652.382 323.748,656.674 323.056,660.277C322.412,663.623 321.136,666.295 319.697,669.59C317.1,675.534 313.848,682.976 310.651,696.534L328.452,699.816Z" style="fill:rgb(77,77,77);"></path> <path d="M337.495,703.895C337.495,703.895 352.047,685.169 358.95,664.531C362.613,653.578 364.18,642.144 361.156,632.345C355.772,614.898 349.407,603.203 345.693,590.853C344.076,585.475 342.963,579.978 342.798,573.711C342.462,560.93 339.306,549.581 334.524,539.02C323.62,514.935 304.257,495.166 294.641,470.849C288.399,455.067 286.154,438.91 286.14,423.527C286.124,405.73 289.067,388.996 292.262,375.079L292.174,375.057C288.252,388.888 284.469,405.567 283.561,423.463C282.758,439.296 284.226,456.04 289.795,472.62C298.102,497.351 316.344,518.069 325.946,542.635C329.686,552.204 332.008,562.384 331.71,573.711C331.516,581.083 332.466,587.611 334.033,594.028C337.091,606.543 342.824,618.544 347.28,636.231C349.073,643.351 347.052,651.404 344.021,659.098C337.049,676.794 323.467,692.456 323.467,692.456L337.495,703.895Z" style="fill:rgb(77,77,77);"></path> <path d="M370.147,708.475C370.147,708.475 376.911,681.533 375.186,654.144C374.366,641.121 372.123,628.212 366.304,617.896C361.653,609.652 360.801,603.422 362.167,597.921C365.414,584.839 377.055,576.408 373.512,563.727L373.423,563.742C373.99,573.004 367.402,578.459 361.476,585.273C357.427,589.929 353.969,595.131 352.385,601.978C351.058,607.716 351.454,614.457 354.132,623.135C356.95,632.265 356.277,642.831 354.689,653.237C351.119,676.645 340.486,698.122 340.486,698.122L370.147,708.475Z" style="fill:rgb(77,77,77);"></path> <path d="M373.996,699.894C357.964,678.875 347.368,660.934 340.322,644.946C329.992,621.509 326.593,603.161 323.224,588.272C319.14,570.223 315.082,556.734 302.357,546.113C282.228,529.312 267.169,513.04 257.574,497.966C247.434,482.035 243.436,467.845 246.037,456.532L245.951,456.505C241.439,467.808 243.441,483.129 251.369,501.271C258.905,518.514 271.882,537.921 290.079,558.689C298.055,567.792 298.541,578.254 299.442,591.736C300.56,608.461 301.29,628.92 308.501,656.102C313.613,675.371 322.287,697.507 336.637,724.037L373.996,699.894Z" style="fill:rgb(77,77,77);"></path> <path d="M329.904,721.849C329.904,721.849 319.161,679.824 303.589,643.219C295.008,623.045 285.003,604.562 274.561,595.304C256.301,579.115 241.803,568.819 232.221,557.67C226.764,551.32 222.94,544.72 220.929,536.612L220.84,536.631C222.228,545.03 225.615,552.025 230.632,558.926C239.319,570.876 252.941,582.429 269.875,600.165C278.893,609.611 286.59,627.723 293.024,647.203C305.171,683.979 312.2,725.621 312.2,725.621L329.904,721.849Z" style="fill:rgb(77,77,77);"></path> <path d="M328.742,726.225C328.742,726.225 314.891,718.289 304.922,706.493C299.589,700.182 294.415,692.96 296.376,684.999C300.841,666.88 303.696,636.381 300.39,608.717C298.031,588.981 292.654,570.722 283.093,558.914C269.364,541.958 236.119,514.395 228.687,457.5C224.75,427.367 227.946,389.266 244.591,340.417L244.506,340.385C224.336,388.884 218.759,427.406 220.731,458.272C224.574,518.441 257.131,549.82 270.341,568.555C277.516,578.731 280.393,594.096 281.247,610.362C282.559,635.341 278.306,662.506 273.226,678.471C269.161,691.244 272.646,704.192 279.442,715.793C291.011,735.542 313.362,750.578 313.362,750.578L328.742,726.225Z" style="fill:rgb(77,77,77);"></path> </g> <g transform="matrix(1,0,0,1,-554.357,-361.617)"> <path d="M1038.87,1040.76C1038.87,1040.76 1063.13,1040.76 1063.13,1014.75C1063.13,946.511 1009.78,953.432 1009.78,909.27C1009.78,892.036 1038.87,878.051 1038.87,827.607L1038.87,760.334" style="fill:none;stroke:rgb(77,77,77);stroke-width:2.08px;"></path> </g> <g transform="matrix(-1,0,0,1,1668.01,-356.637)"> <path d="M1038.87,1177.48L1038.87,823.344C1038.87,773.183 1017.13,754.789 1017.13,721.629C1017.13,688.469 1038.87,684.342 1038.87,624.385L1038.87,568.286" style="fill:none;stroke:rgb(77,77,77);stroke-width:2.08px;"></path> </g> </svg>