<svg xmlns="http://www.w3.org/2000/svg" xmlns:xlink="http://www.w3.org/1999/xlink" xmlns:serif="http://www.serif.com/" width="100%" height="100%" viewBox="0 0 1080 1080" xml:space="preserve" style="fill-rule:evenodd;clip-rule:evenodd;stroke-linejoin:round;stroke-miterlimit:2;"> <g> <g transform="matrix(0.854893,-0.518804,0.518804,0.854893,-459.744,638.348)"> <path d="M1096.21,378.568L1098.02,375.586L1098.02,371.749L1093.48,371.749L1091.76,378.418" style="fill:rgb(77,77,77);"></path> </g> <g transform="matrix(1,0,0,1,-424.884,374.67)"> <path d="M983.345,40.922L981.873,33.401L977.295,36.671L977.295,40.922L983.345,40.922Z" style="fill:rgb(77,77,77);"></path> </g> <g transform="matrix(-0.922837,-0.385191,0.385191,-0.922837,1465.15,1000.05)"> <path d="M1008.96,113.569L1006.31,114.795L1006.31,120.926L1008.96,128.079L1012.23,120.926L1008.96,113.569" style="fill:rgb(77,77,77);"></path> </g> <g transform="matrix(1,0,0,1,-424.884,240.674)"> <path d="M960,152.825L955.063,152.825L953.301,145.672L960,145.672L960,152.825Z" style="fill:rgb(77,77,77);"></path> </g> <g transform="matrix(1,0,0,1,-424.884,240.674)"> <path d="M1004.92,124.408L1009.71,116.624L1011.47,122.364L1007.59,124.408L1004.92,124.408Z" style="fill:rgb(77,77,77);"></path> </g> <g transform="matrix(1,0,0,1,-424.884,240.674)"> <path d="M988.773,135.584L988.773,128.904L985.516,128.904L988.773,135.584Z" style="fill:rgb(77,77,77);"></path> </g> </g> </svg>